<?xml version="1.0" encoding="utf-8"?>
<!-- Generator: Adobe Illustrator 24.0.1, SVG Export Plug-In . SVG Version: 6.00 Build 0)  -->
<svg version="1.1" id="Capa_1" xmlns="http://www.w3.org/2000/svg" xmlns:xlink="http://www.w3.org/1999/xlink" x="0px" y="0px"
	 viewBox="0 0 512 512" style="enable-background:new 0 0 512 512;" xml:space="preserve">
<style type="text/css">
	.st0{fill:#919498;}
</style>
<g>
	<g>
		<path class="st0" d="M343,0H184c-33.1,0-60,26.9-60,60v19.9h-20c-33.1,0-60,26.9-60,60v312c0,33.1,26.9,60,60,60h234
			c33.1,0,60-26.9,60-60v-20l10,0c33.1,0,60-26.9,60-60V125.7L343,0z M354,67.8l45.9,46.1H374c-11,0-20-9-20-20V67.8z M358,452
			c0,11-9,20-20,20H104c-11,0-20-9-20-20v-312c0-11,9-20,20-20h20v252.1c0,33.1,26.9,60,60,60l174-0.1V452z M428,372
			c0,11-9,20-20,20l-224,0.1c-11,0-20-9-20-20V60c0-11,9-20,20-20h130v53.9c0,33.1,26.9,60,60,60h54L428,372L428,372z"/>
	</g>
</g>
</svg>
