<?xml version="1.0" encoding="utf-8"?>
<!-- Generator: Adobe Illustrator 24.0.1, SVG Export Plug-In . SVG Version: 6.00 Build 0)  -->
<svg version="1.1" id="Capa_1" xmlns="http://www.w3.org/2000/svg" xmlns:xlink="http://www.w3.org/1999/xlink" x="0px" y="0px"
	 viewBox="0 0 512 512" style="enable-background:new 0 0 512 512;" xml:space="preserve">
<style type="text/css">
	.st0{fill:#919498;}
</style>
<g>
	<g>
		<path class="st0" d="M452,0H60C26.9,0,0,26.9,0,60v80h40V60c0-11,9-20,20-20h392c11,0,20,9,20,20v392c0,11-9,20-20,20H60
			c-11,0-20-9-20-20v-80H0v80c0,33.1,26.9,60,60,60h392c33.1,0,60-26.9,60-60V60C512,26.9,485.1,0,452,0z"/>
	</g>
</g>
<g>
	<g>
		<polygon class="st0" points="124.3,380.3 152.6,352 76.6,276 364.3,276 364.3,236 76.6,236 152.6,160 124.3,131.7 0,256 		"/>
	</g>
</g>
</svg>
