<?xml version="1.0" encoding="utf-8"?>
<!-- Generator: Adobe Illustrator 24.0.1, SVG Export Plug-In . SVG Version: 6.00 Build 0)  -->
<svg version="1.1"
	 id="Camada_1" shape-rendering="geometricPrecision" text-rendering="geometricPrecision" image-rendering="optimizeQuality"
	 xmlns="http://www.w3.org/2000/svg" xmlns:xlink="http://www.w3.org/1999/xlink" x="0px" y="0px" viewBox="0 0 230 232.7"
	 style="enable-background:new 0 0 230 232.7;" xml:space="preserve">
<style type="text/css">
	.st0{fill:none;}
	.st1{fill:#803031;}
	.st2{fill:#A19896;}
</style>
<g id="Camada_x0020_1">
	<g id="_1046737296">
		<path class="st0" d="M0,0h230v232.7"/>
		<path class="st1" d="M190.2,8.8h-65.4c-5.4,0-9.8,4.4-9.8,9.8c0-5.4-4.4-9.8-9.8-9.8H33.3v8.4h6.4c5.8,0,10.8,3.8,12.5,9
			l42.5,115.2h0.1v-38.9c0,0,0.2-3.5-1.2-4.9v-0.6v0c-0.3-0.4-0.7-0.8-1-1.3c-0.3-0.5-0.4-1.1,0-1.6v-0.4c0,0-2.4-1.6-3.2-2.8
			c-0.1-0.2-0.2-0.4-0.2-0.6c-0.1-0.4,0-1,0-1c0.2-0.3,1-1,1-1V88l-0.2-0.2l0-0.1c-0.2-0.2-0.2-0.5-0.2-0.7s0.1-0.5,0.2-0.7l0.2-0.2
			l0.5-0.5v-1.6l0.7-0.6v-9.1l-1-1.2c0,0-0.6,0-0.6-0.5c-0.4-0.3-1-1-1.2-1.3c0,0,0,0,0-0.1c0,0-0.1,0-0.1,0v-0.9l1.9-1.9l1.4-1.5
			v-1.4l0.5-0.6v-4.6l-0.5-0.6v-1l0.3-0.3v-1.1l-0.3-0.6l1-0.9c0-0.1,0-0.2,0-0.4c0-0.9,0.9-1.7,2-1.7c1.1,0,2,0.7,2,1.7
			c0,0.1,0,0.2-0.1,0.4h0.1v0.6l0.8,1.6V59l0.7-0.6l1.2,0.3v-0.5l-0.1-0.1l-0.2-0.2L99,57.8l1.4-1.3l1.3,0.3v-0.6l-0.1-0.1l-0.3-0.2
			l-0.1-0.1l1.5-1.4l1.3,0.4V54l0,0l-0.3-0.2l-0.2-0.1l1.6-1.5l0.7,0.2v-4l-0.5-0.7v-0.8l0.5-0.7v-1.5l0.4-0.4
			c0-0.2-0.1-0.4-0.1-0.5c0-1.1,1-1.9,2.1-1.9s2.2,0.8,2.2,1.9c0,0.2,0,0.4-0.1,0.5l0.4,0.2v1l0,0.1l-0.1,0.1v0.5l0.3,0.1v0.9l0,0.5
			l-0.2,1l0,0.3h-0.2v1.3l1.6,0.4v0.4l-0.4,0.2l0,0v2.3l1.8,0.5v-1.9l-0.2-0.2l0.6-0.8L117,52v0.2l-0.1,0.1l-0.3,0.3v2.3l1.7,0.5
			v-1.7l-0.2-0.4v-0.2l0.7-0.6l2.8,0.7v0.2l-0.2,0.1l-0.3,0.2l-0.1,0.1v2.2l1.7,0.5v-1.7l-0.2-0.3v-0.3l0.8-0.6l2.9,0.8v0.2
			l-0.1,0.1l-0.2,0.3l-0.2,0.5v1.8l1.6,0.5v-1.4l-0.3-0.5v-0.3l0.9-0.6l2.7,0.7v0.2l-0.1,0l-0.3,0.3l-0.1,0v2.3l1.6,0.4v-1.7
			l-0.3-0.4v-0.2L132,56l0.5,0.2v-0.9l-0.2-0.3l-0.1-0.7l0.2-0.3l-0.1-1.2l0.3-0.4c0,0,0.2-0.1,0.4-0.1c0-0.1,0-0.3,0-0.4
			c0-1,1-1.8,2.1-1.8c1.1,0,2.1,0.8,2.1,1.8c0,0.2,0,0.3-0.1,0.5v0l0.5,0.7l-0.2,0.2l-0.2,0.3v0.3l0.8,1v0.8l-0.2,0.2l-0.3,0.3
			l-0.2,0.3v3.8l0.8,1.2v0.9l2.3,2.6l0.8,1.9v1l-1.3,1l0,0v0.1c0,0.1,0,0.2-0.1,0.4c0,0,0,0,0,0.1c-0.1,0.2-0.2,0.2-0.5,0.3
			c0,0.1-0.1,0.3-0.3,0.4c0,0.2-0.1,0.4-0.3,0.4h0v7.9l0.2,0.1l0.5,1.1l0,1.1c0,0,1.3,3.5,1.5,3.8c0,0.2,0.1,0.3,0.2,0.5
			c0,0,0,0.1,0,0.1v0.2c0,0.1,0,0.2,0,0.4c0,0.1,0,0.2,0,0.4c-0.1,1.2-1.1,1.8-2.5,2.6c-0.3,0.2-0.7,0.5-0.7,0.7v0.1h0
			c0.1,0.2,0.2,0.6,0,1.2c0,0,0,0.1,0,0.1c-0.2,0.5-0.5,1-1.2,1.6c0,0,0,0,0,0c0,0,0,0,0,0c-0.6,0.7-1.4,2.9-1.4,6.2v42.5h0
			l42.5-115.2c1.8-5.3,6.7-9,12.5-9h6.5V8.8H190.2z"/>
		<path class="st2" d="M93.7,95.1c-0.4,0-0.7,0.1-0.9,0.4c0,0,0,0.1,0,0.1c0.2,0.5,0.7,0.9,1,1.3c0.1-0.2,0.3-0.7,0.3-1.1v-0.2v-0.1
			C94.1,95.2,94,95.2,93.7,95.1z M117.5,95C117.5,94.9,117.5,94.9,117.5,95l-1.9-0.4h0c0,0,0,0,0,0v4.5l0,0l1.7,0.3
			c0,0,0.1,0,0.1-0.1c-0.2-0.5-0.4-1.1-0.4-1.7C116.9,96.8,117.1,95.9,117.5,95L117.5,95z M127.3,101.3L127.3,101.3l2.6,0.5h0v-4.6
			c0,0,0,0,0,0l-1.9-0.4H128V97c0.1,0.3,0.2,0.7,0.2,1C128.3,99.2,128,100.4,127.3,101.3L127.3,101.3z M121.8,84.4l-0.8,1.2
			c0,0,0,0.1,0,0.1c0,0,0.1,0,0.1,0.1l0.5,0.1h0l1-0.3l1.8,0.3h0.1l0.9-0.6c0,0,0-0.1,0-0.1s0-0.1-0.1-0.1l-3.4-0.7
			C121.8,84.3,121.8,84.4,121.8,84.4z M123.5,84.4L123.5,84.4c0.1,0,0.2-0.1,0.2-0.2c0-0.1,0-0.2-0.1-0.2l-1.3-0.2
			c-0.1,0-0.2,0-0.2,0.1c0,0.1,0,0.2,0.2,0.2L123.5,84.4z M138.4,88.7c1.4-0.7,2.4-1.3,2.5-2.6c0-0.2,0-0.5-0.1-0.7v-0.1
			c0,0,0,0,0-0.1c-0.5-0.2-1-0.5-1.6-0.7c-1-0.3-2-0.5-3.1-0.5c-1.6,0-3,0.4-4.1,1.1c-0.1,0-0.1,0.1,0,0.2c0.7,1.4,1.7,2.6,3.5,4.1
			c0,0,0,0,0.1,0c0.3-0.1,0.6-0.1,0.9-0.1c0.4,0,0.7,0.1,1.1,0.2v-0.1v0v-0.1C137.8,89.2,138.1,88.9,138.4,88.7z M121.1,99.4
			l-1.9,0.2c0,0-0.1,0-0.1,0.1c0,0,0,0.1,0.1,0.1l2.5,0.5h0c0,0,0.1,0,0.1,0c0-0.1,0-0.1,0-0.2L121.1,99.4
			C121.2,99.5,121.2,99.4,121.1,99.4z M123.5,99.9C123.5,99.9,123.4,99.9,123.5,99.9L123.5,99.9l-0.5,0.4c0,0,0,0.1,0,0.1
			s0,0.1,0.1,0.1l2.6,0.5h0c0,0,0.1,0,0.1-0.1c0,0,0-0.1-0.1-0.1L123.5,99.9z M107.8,86.3c-0.5,0-0.9,0.1-1.2,0.3c0,0,0,0.1,0,0.1
			c0.2,0.5,0.6,1,1,1.4c0,0,0,0,0,0c0.3-0.2,1,0,1,0h0c0.4-0.4,0.7-0.8,0.8-1.2c0,0,0-0.1,0-0.1C108.9,86.4,108.4,86.3,107.8,86.3z
			 M91.4,86.3c-0.3,0.1-0.5,0.5-0.5,0.8c0.1,0.3,0.3,0.5,0.6,0.5c0.1,0,0.1,0,0.2,0c0.9-0.2,2.1-0.5,3.7-0.4c0.2,0,0.4,0,0.5-0.1
			l7.2-5.8c0.3-0.2,0.3-0.7,0.1-0.9c-0.2-0.3-0.7-0.3-1-0.1l-7,5.7C93.6,85.7,92.3,86,91.4,86.3z M108.1,75.8c0,0.3,0.2,0.5,0.5,0.5
			c1.4,0,2.7,0.3,3.7,1c0.1,0,0.2,0.1,0.3,0.1c0.1,0,0.3-0.1,0.4-0.2c0.2-0.2,0.1-0.5-0.1-0.7c-1.2-0.7-2.6-1.1-4.2-1.1
			C108.3,75.3,108.1,75.5,108.1,75.8z M96.1,89.4c-0.6-0.2-1.2-0.2-1.9-0.2c-2,0-3.8,0.6-4.6,1.6c0.8,1.2,3.2,2.8,3.2,2.8
			c0.2-0.1,0.6-0.2,0.9-0.2c0.3,0,0.7,0,1,0.2C95.3,92.2,96,90.6,96.1,89.4z M115.9,72c0.1,0.2,0.1,0.5,0.1,0.7c0,0,0,0.1,0.1,0.1
			l0.5,0.1h0c0,0,0.1,0,0.1,0l1.1-1.8l0.9,0.2c0.1,0,0.2,0,0.2-0.1c0-0.1,0-0.2-0.1-0.2l-6.4-1.7c-0.1,0-0.2,0-0.2,0.1
			c0,0.1,0,0.2,0.1,0.2l1.9,0.5C115.1,70.6,115.7,71.3,115.9,72z M113.8,69.1L113.8,69.1l-1.7-0.4c-0.1,0-0.2,0.1-0.2,0.2
			c0,0.1,0,0.2,0.2,0.3l6.9,1.8c0,0,0,0,0.1,0c0.1,0,0.2-0.1,0.2-0.2c0-0.1,0-0.2-0.2-0.3l-1.6-0.4c0-0.3,0-0.6-0.1-0.9
			c-0.4-1.2-1.6-2.1-2.7-2.1c-0.9,0-1.4,0.6-1.4,1.4l0.5,0.2c0.1,0,0.2,0.2,0.2,0.3C114,69,113.9,69.1,113.8,69.1z M120.1,71.4
			c-0.1,0-0.2,0-0.2,0.1c0,0.1,0,0.2,0.1,0.2l1.4,0.4c0.9,0.4,1.4,1.1,1.7,1.8c0.1,0.2,0.1,0.5,0.1,0.7c0,0,0,0.1,0.1,0.1l0.6,0.1
			c0,0,0.1,0,0.1,0l1.1-1.8l1,0.2h0c0.1,0,0.2,0,0.2-0.1c0-0.1,0-0.2-0.1-0.2L120.1,71.4z M121,71L121,71l-1.2-0.3
			c-0.1,0-0.2,0.1-0.2,0.2c0,0.2,0,0.3,0.2,0.3l6.5,1.7h0c0.1,0,0.2-0.1,0.2-0.2c0-0.2,0-0.3-0.2-0.3l-1.7-0.5c0-0.3,0-0.6-0.1-0.9
			c-0.4-1.2-1.6-2.1-2.7-2.1c-0.9,0-1.4,0.6-1.4,1.4l0.5,0.2c0.1,0,0.2,0.2,0.2,0.3C121.2,70.9,121.1,71,121,71z M132.9,74.8
			l-5.7-1.5c-0.1,0-0.2,0-0.2,0.1c0,0.1,0,0.2,0.1,0.2l1.3,0.4c0.8,0.4,1.4,1.1,1.6,1.8c0.1,0.2,0.1,0.5,0.1,0.7c0,0,0,0.1,0.1,0.1
			l0.5,0.1h0c0,0,0.1,0,0.1,0l1.2-1.8l0.7,0.2h0c0.1,0,0.2,0,0.2-0.1C133.1,75,133,74.8,132.9,74.8z M128,72.9L128,72.9l-1-0.3
			c-0.1,0-0.2,0.1-0.2,0.2c0,0.1,0,0.3,0.2,0.3l6,1.6c0,0,0,0,0,0c0.1,0,0.2-0.1,0.2-0.2c0-0.1,0-0.2-0.2-0.3l-1.3-0.3
			c0-0.3,0-0.6-0.1-0.9c-0.4-1.2-1.6-2.1-2.7-2.1c-0.9,0-1.4,0.6-1.4,1.4l0.5,0.2c0.1,0,0.2,0.2,0.2,0.3
			C128.3,72.8,128.2,72.9,128,72.9z M132.2,83.1c0.1,0,0.2,0,0.3-0.1c0.6-0.3,1.4-0.5,2.1-0.5c0.3,0,0.5-0.2,0.5-0.5
			s-0.2-0.5-0.5-0.5c-0.9,0-1.8,0.2-2.5,0.6L114.4,78h-0.1c-0.2,0-0.5,0.2-0.5,0.4c0,0.3,0.1,0.6,0.4,0.6l18,4
			C132.1,83.1,132.2,83.1,132.2,83.1z"/>
		<path class="st2" d="M90,72.7c0,0.5,0.6,0.5,0.6,0.5l1,1.2v0.5h0.1l1.2-1.1l2.5,0c0,0,0,0,0,0l8.9-7.9c0,0,0-0.1,0-0.1v-2.1
			l1.6-1.4l2.6-0.2l2.5,0.7l0.6,1.2c0,0,0,0.1,0,0.1l21.1,5.6h0l3-0.3L138,70l0.5,0.6h0c0.2,0,0.3-0.2,0.3-0.4
			c0.2-0.1,0.3-0.3,0.3-0.4c0.2,0,0.4-0.1,0.5-0.3c0,0,0-0.1,0-0.1l-0.7-1.2c0,0,0,0,0,0l-3-0.9h0l-3.4,0.1l-19.2-5.1l-1.2-1.5
			c0,0,0,0-0.1,0l-3.3-1h0l-3.4,0.4h-0.1l-10.6,9.3l-3.8,0.2c0,0-0.1,0-0.1,0l-1.9,1.6c0,0,0,0.1,0,0.1C89.1,71.7,89.6,72.4,90,72.7
			z M90.5,72.6l1.3-1.2c0,0,0,0,0.1-0.1l3-0.2l8.8-7.6c0.1-0.1,0.2-0.1,0.3,0c0,0.1,0,0.2,0,0.3l-8.9,7.6c0,0,0,0-0.1,0l-3,0.2
			l-1.3,1.2c0,0-0.1,0-0.1,0s-0.1,0-0.1,0C90.5,72.8,90.5,72.7,90.5,72.6z"/>
		<path class="st2" d="M108.6,57.5L108.6,57.5l-4.2,0.4l0,0l-3.4,3c0,0,0,0.1,0,0.1c0,0,0,0,0.1,0.1l1.7,0.5h0c0,0,0,0,0,0l2.2-1.9
			l3.7-0.4l3.4,1l1.4,1.7c0,0,0,0,0.1,0l18.8,5h0l3.4-0.1l3.2,0.9l0.7,1.2l0,0l1.3-1v-0.3l-0.8-1.6c0,0,0,0-0.1,0l-3.9-1h0l-5,0.1
			L115,60.7l-1.5-1.8c0,0,0,0-0.1,0L108.6,57.5z M96.7,77.4l-1-0.1l-1.1,1l0.8,0.7l0.1,0v0l0.2-0.1c0.2-0.2,0.4-0.2,0.7-0.2
			c0.5,0,0.9,0.3,1,0.7l0,0v0l0.2-0.2l0.2-2.2c0,0,0,0,0,0l1.2-1.1c0.2-0.1,0.4-0.2,0.6-0.2c0.5,0,0.9,0.3,1.1,0.7l0.2-0.2l0.2-2.1
			c0,0,0,0,0-0.1l1.2-1c0.6-0.4,1.4-0.1,1.6,0.5l0,0l0.2-0.2l0-0.2v-4.7c-0.1-0.1-0.3-0.1-0.4-0.1c-0.5,0.1-1,1-1,1.8
			c0,0.3,0,0.6,0.1,0.8l0.6,0.4c0,0,0.1,0.1,0,0.2c0,0.1-0.1,0.1-0.2,0.1l-1-0.1l-1.1,1h0l-0.5,0.4c-0.1,0-0.2,0.1-0.2,0
			c0,0,0-0.1,0-0.1s0-0.1,0-0.1l0.8-0.7c-0.1-0.6-0.4-0.9-0.8-0.8c-0.5,0.1-1,0.9-1.1,1.8c0,0.3,0,0.6,0.1,0.8l0.6,0.4
			c0,0,0.1,0.1,0,0.2c0,0-0.1,0.1-0.1,0.1l-1-0.1l-1,0.9c0,0,0,0,0,0l-0.6,0.5c-0.1,0.1-0.2,0.1-0.2,0c0,0,0-0.1,0-0.1h0
			c0,0,0,0,0-0.1l0.8-0.7c-0.1-0.5-0.4-0.9-0.8-0.8c-0.5,0.1-1,0.9-1,1.8c0,0.3,0,0.6,0.1,0.8l0.6,0.4c0,0,0.1,0.1,0,0.2
			C96.9,77.4,96.8,77.4,96.7,77.4z M109.8,85.6c1.1-0.8,3.3-2.5,3.7-4.8c0,0,0-0.1,0-0.1c-1-0.8-2.9-1.6-5.1-1.6
			c-1.5,0-3.6,0.4-5,2.2c0,0,0,0.1,0,0.1c0.4,1.1,1.3,3.1,2.9,4.2c0,0,0,0,0.1,0c0,0,0,0,0.1,0c0.2-0.1,0.7-0.3,1.4-0.3
			c0.5,0,1.1,0.2,1.6,0.5h0.1C109.6,85.8,109.7,85.7,109.8,85.6z M104.3,92.7l-1.6-0.4l-0.7,0.5c0,0-0.1,0-0.1,0c0,0,0-0.1,0-0.1
			v-0.1c0-1.5-0.3-2.7-0.9-3.3c-0.4-0.4-0.8-0.5-1.3-0.3c0,0.4-0.1,0.7-0.2,0.8c-0.1,0.2-0.5,0.3-0.5,0.4h0l-0.5-0.1
			c-0.8,1.2-1.4,3.1-1.4,4.8c0,0.3,0,0.8,0,1l1-0.1c0.2,0,0.4,0.2,0.4,0.3c0,0.2-0.2,0.4-0.4,0.4h-1h0L95.2,98l0,0.1l0-0.1l1.9,1.2
			l0.1-0.1c0,0,0,0,0,0s0.3-0.2,0.7-0.2c0.6,0,1.2,0.3,1.9,0.8c0.1,0.1,0.2,0.2,0.3,0.2v0c0.3,0.2,0.7,0.2,1.1,0
			c0.9-0.7,1.4-2.8,1.1-4.7c0,0,0-0.1,0-0.1l1.8-1.3L104.3,92.7z M98.1,99.5L98.1,99.5l-1.2,0.8v0l0,4.7l0,0H97l1.5-1.1V104
			c-0.3-0.7-0.5-1.7-0.5-2.9C98,100.6,98.1,100.1,98.1,99.5C98.2,99.6,98.2,99.5,98.1,99.5z"/>
		<path class="st2" d="M103,100.9L103,100.9l0.8-0.5c0,0,0,0,0,0v-4.6c0,0,0,0,0-0.1h0l-0.8,0.6c0,0,0,0,0,0.1
			c0.2,0.7,0.3,1.5,0.3,2.4C103.2,99.4,103.1,100.1,103,100.9C102.9,100.8,102.9,100.8,103,100.9z M100.4,102.2L100.4,102.2
			l-0.7,0.8c0,0,0,0,0,0.1h0l0.9-0.6v0v0L100.4,102.2L100.4,102.2z M101.1,101.7L101.1,101.7l0.1,0.3l0,0h0.1l0.8-0.6c0,0,0,0,0-0.1
			c0,0-0.1,0-0.1,0L101.1,101.7C101.1,101.7,101.1,101.7,101.1,101.7z M99.1,86.9C99.1,86.9,99.1,86.9,99.1,86.9l-1.6,1.2
			c0,0,0,0.1,0,0.1s0,0,0.1,0.1l0.8,0.5c0,0,0,0,0,0c0,0,0.1,0,0.1,0l0.9-0.7l0.9,0.1h0l0.9-0.5c0,0,0.1,0,0.1-0.1
			c0,0,0-0.1-0.1-0.1L99.1,86.9z M100.8,87.1C100.8,87.1,100.8,87.1,100.8,87.1c0.2-0.2,0.3-0.5,0.2-0.7c-0.1-0.2-0.3-0.3-0.7-0.3
			c-0.2,0-0.4,0-0.5,0.1c-0.2,0.1-0.4,0.2-0.5,0.3v0.1c0,0,0,0.1,0.1,0.1L100.8,87.1L100.8,87.1z M96.9,60.3c0,0,0.1,0,0.1,0
			l1.3-1.2l1,0.3c0.1,0,0.2,0,0.2-0.1c0-0.1,0-0.2-0.1-0.2l-1.1-0.3c-0.1,0-0.1,0-0.2,0L96.8,60c-0.1,0-0.1,0.2,0,0.2
			C96.8,60.3,96.9,60.3,96.9,60.3z M100.5,57.1l1.2,0.3c0.1,0,0.2,0,0.2-0.1c0-0.1,0-0.2-0.2-0.2l-1.3-0.3c-0.1,0-0.1,0-0.2,0
			l-1.2,1.1l0.2,0.3L100.5,57.1z M102.8,55l0.9,0.2c0.1,0,0.2,0,0.2-0.1c0-0.1,0-0.2-0.1-0.2l-1-0.2c0,0-0.1,0-0.2,0l-1.3,1.2
			l0.3,0.2L102.8,55z M105.2,52.8l0.6,0.2c0.1,0,0.2,0,0.2-0.1c0-0.1,0-0.2-0.2-0.2l-0.7-0.2c-0.1,0-0.1,0-0.2,0l-1.3,1.2l0.3,0.2
			L105.2,52.8z M110.6,51l1.2,0.3l0.4-0.2v0l-1.6-0.4V51z M113.9,52.2l0.2-0.3l2.4,0.7l0.3-0.3l-2.8-0.7c0,0-0.1,0-0.2,0.1l-0.3,0.4
			c-0.1,0,0,0.2,0,0.2C113.7,52.3,113.8,52.3,113.9,52.2z M118.5,53.5l0.4-0.2l2.2,0.6l0.4-0.3l-2.6-0.7c-0.1,0-0.1,0-0.2,0
			l-0.4,0.3c-0.1,0.1-0.1,0.2,0,0.2C118.3,53.5,118.4,53.6,118.5,53.5z M123,54.6l0.3-0.2l2.6,0.7l0.2-0.3l-2.7-0.7c0,0-0.1,0-0.2,0
			l-0.4,0.3c-0.1,0-0.1,0.2,0,0.2C122.8,54.7,122.9,54.7,123,54.6z M127.5,55.9l0.4-0.3l2.1,0.6l0.4-0.3l-2.5-0.7
			c-0.1,0-0.1,0-0.2,0l-0.5,0.3c-0.1,0-0.1,0.2,0,0.2C127.3,56,127.4,56,127.5,55.9z M131.8,57l0.3-0.2l0.4,0.1v-0.4l-0.4-0.1
			c0,0-0.1,0-0.2,0l-0.3,0.3c-0.1,0-0.1,0.2,0,0.2C131.6,57.1,131.7,57.1,131.8,57z M137.2,55.2l-1.9-0.6c0,0-0.1,0-0.1,0l-2.2,0.6
			c-0.1,0-0.2,0.2-0.2,0.3c0,0.1,0.2,0.2,0.3,0.2l2.1-0.6l1.7,0.6l0.4,0.7l0.3-0.4l-0.3-0.6L137.2,55.2z M132.8,52.9l2.1-0.5
			l1.7,0.6l0.5,0.9v-0.2l0.2-0.3l-0.4-0.7c0,0-0.1-0.1-0.1-0.1l-1.8-0.6c0,0-0.1,0-0.2,0l-2.1,0.6c-0.1,0-0.2,0.2-0.2,0.3
			C132.6,52.8,132.7,52.9,132.8,52.9z M106.1,47.8l0.6-0.5l1.6,0l2,0.5l0.5,0.8l0.1-1l-0.1-0.3c0,0-0.1-0.1-0.2-0.1l-2.1-0.6
			c0,0,0,0-0.1,0h-1.7c-0.1,0-0.2,0-0.2,0.1l-0.7,0.6c-0.1,0.1-0.1,0.3,0,0.4C105.8,47.9,106,47.9,106.1,47.8z M106.4,45.3l0.6-0.5
			h1.6l2,0.6l0.1,0.2l0-0.1v-0.7l-2.1-0.6h0l-1.8,0c-0.1,0-0.2,0-0.2,0.1l-0.7,0.6c-0.1,0.1-0.2,0.3,0,0.4
			C106.1,45.4,106.3,45.4,106.4,45.3z M92.6,57.2c0.1,0,0.2,0,0.2-0.1l0.4-0.4h3.2c0.2,0,0.3-0.1,0.3-0.3c0-0.2-0.1-0.3-0.3-0.3
			l-3.3,0c-0.1,0-0.2,0-0.2,0.1l-0.5,0.5c-0.1,0.1-0.1,0.3,0,0.4C92.4,57.2,92.5,57.2,92.6,57.2z M92.6,60.2c0.1,0,0.2,0,0.2-0.1
			l0.4-0.4h3.2c0.2,0,0.3-0.1,0.3-0.3c0-0.2-0.1-0.3-0.3-0.3l-3.3,0c-0.1,0-0.2,0-0.2,0.1l-0.5,0.5c-0.1,0.1-0.1,0.3,0,0.4
			C92.4,60.2,92.5,60.2,92.6,60.2z M127,93.5C126.9,93.5,126.9,93.4,127,93.5c-0.1-0.1-0.2-0.2-0.1-0.3c0-0.2,0.2-0.3,0.3-0.3
			c0,0,0,0,0.1,0l1,0.2v-0.6c-0.2-2.2-1.7-4.3-3.8-5.1l-0.4,0.7c0,0,0,0.1-0.1,0.1v0c0,0-0.1,0-0.1,0c0,0,0-0.1,0-0.1v0
			c0,0,0-0.1,0-0.1c0,0-0.1-0.1-0.1-0.1l-0.9-0.2c-0.1,0-0.2,0-0.2,0.2c0,0,0,0.1-0.1,0.1c0,0-0.1,0-0.1-0.1l-0.2-0.6
			c-2.2,0.1-4,1.8-4.3,4.1l1.4,0.2c0.1,0,0.2,0.1,0.2,0.2s0.1,0.2,0,0.2c0,0.1,0,0.2-0.1,0.2c0,0-0.1,0-0.1,0l-4.2-0.8l0.5,1.7h0
			l2.1,0.4c0,0,0.1,0,0.1,0.1c0.6,2.6,2.8,4.7,5.2,4.7c1.8,0,3.3-1.1,4.1-2.9c0,0,0.1,0,0.1,0l2.7,0.5c0.4-0.5,0.9-1.2,1-1.4
			L127,93.5z"/>
		<path class="st2" d="M185.3,27.4v5.3h-6.7l-0.9,2.5h7.6v5h-9.5l-0.9,2.5h10.4v5H173l-1,2.5h13.2v5h-15.1l-0.9,2.5h16v5.1h-17.9
			l-0.9,2.4h18.8v5h-20.6l-0.9,2.5h21.5v5.1h-23.4l-0.9,2.4h24.3v5.1h-26.2l-0.9,2.4h27.1v2.9c0,0.7,0,1.4-0.1,2.1h-28.9l-0.9,2.4
			h29.7c-0.1,1.7-0.3,3.4-0.5,5.1h-31l-0.9,2.4h31.6c-0.3,1.7-0.7,3.4-1.1,5.1h-32.4l-0.9,2.5h32.6c-0.5,1.7-1.1,3.4-1.7,5H148
			l-0.9,2.5h32.7c-0.7,1.7-1.6,3.4-2.4,5h-32.2l-0.9,2.5h31.8c-1,1.7-2,3.4-3.1,5h-30.5l-0.9,2.5h29.6c-1.3,1.7-2.7,3.4-4.2,5h-27.3
			l-0.9,2.5h25.8c-1.8,1.8-3.7,3.5-5.7,5H130v-42.9c0,0,0-0.1,0-0.1l-14.3-2.6c0,0,0,0,0,0c0,0,0,0,0,0v45.5h-11.8v-41.8
			c0,0,0,0-0.1,0c-0.2,0-0.4-0.2-0.3-0.5c0-0.2,0.2-0.3,0.4-0.4v-1.8l-6.8,4.8v39.7H71c-1.9-1.6-3.8-3.3-5.7-5h28.4l-0.9-2.5H63
			c-1.4-1.6-2.9-3.3-4.2-5H91l-0.9-2.5H57c-1.1-1.7-2.1-3.3-3.1-5h34.3l-1-2.5H52.5c-0.8-1.7-1.7-3.3-2.4-5h35.2l-0.9-2.5H49.2
			c-0.6-1.7-1.2-3.3-1.7-5h35.1l-0.9-2.5H46.8c-0.4-1.7-0.8-3.3-1.1-5.1h34.1l-0.9-2.4H45.4c-0.2-1.7-0.4-3.3-0.5-5.1h32.2L76.2,93
			H44.7c0-0.7-0.1-1.4-0.1-2.1v-2.9h29.6l-0.9-2.4H44.7v-5.1h26.9l-0.9-2.4h-26v-5.1h24.1l-1-2.5H44.7v-5h21.3L65,62.9H44.7v-5.1
			h18.5l-0.9-2.5H44.7v-5h15.8l-0.9-2.5H44.7v-5h13l-0.9-2.5H44.7v-5h10.2L54,32.8h-9.3v-5.3c0-2.7-2.2-5-4.9-5v68.4
			c0,41.5,33.7,75.3,75.2,75.3s75.2-33.8,75.2-75.3V22.5C187.5,22.5,185.3,24.7,185.3,27.4z M128.2,103.8c0.3,0,0.6,0.2,0.6,0.5
			c0,0.3-0.2,0.6-0.5,0.6c-0.3,0-0.5-0.2-0.6-0.6C127.7,104.1,127.9,103.8,128.2,103.8z M119.3,103.5v-1.2l0,0l7.4,1.3c0,0,0,0,0,0
			v1.2c0,0,0,0,0,0h-0.1c-0.1-0.2-0.3-0.4-0.5-0.4c-0.4-0.1-1,0-1.4,0.4c0,0,0,0-0.1,0c-0.2,0.2-0.4,0.2-0.7,0.2
			c-0.2,0-0.3,0-0.5-0.1c-0.2-0.1-0.3-0.2-0.4-0.4c-0.1-0.2-0.1-0.5,0-0.7c0.1-0.2,0.3-0.3,0.6-0.3c0.1,0,0.2,0,0.3,0
			c0.1,0.1,0.2,0.2,0.3,0.3c0,0.1,0,0.2,0,0.3c-0.1,0.1-0.2,0.2-0.3,0.2c-0.1,0-0.1,0-0.2,0c0,0-0.1,0-0.1,0c0,0,0,0.1,0,0.1
			c0,0,0,0,0,0c0.1,0,0.3,0.1,0.4,0h0c0.2-0.1,0.3-0.2,0.4-0.3c0.1-0.2,0.1-0.3,0-0.5c-0.1-0.2-0.2-0.3-0.4-0.4
			c-0.1-0.1-0.2-0.1-0.4-0.1c-0.2,0-0.5,0.1-0.7,0.3h0c0,0,0,0-0.1,0c-0.1-0.3-0.5-0.5-0.8-0.5c-0.1,0-0.2,0-0.2,0
			c-0.2,0-0.3,0.2-0.4,0.3c-0.1,0.2-0.1,0.3-0.1,0.5c0,0.1,0.1,0.1,0.1,0.2c0.2,0.2,0.5,0.3,0.7,0.2c0,0,0,0,0,0c0,0,0,0,0-0.1
			c0,0-0.1-0.1-0.2-0.1c0,0-0.1,0-0.1,0c-0.2,0-0.3-0.1-0.4-0.2c0-0.1,0-0.2,0-0.4c0-0.1,0.2-0.2,0.3-0.2c0,0,0.1,0,0.2,0
			c0.3,0,0.5,0.2,0.6,0.4c0.1,0.2,0,0.5-0.1,0.7c-0.1,0.1-0.3,0.2-0.5,0.3c-0.1,0-0.2,0-0.3,0c-0.5,0-0.9-0.2-1-0.7c0,0,0,0,0,0
			c-0.1-0.4-0.5-0.7-0.9-0.7c0,0-0.1,0-0.1,0C119.8,103.3,119.6,103.4,119.3,103.5L119.3,103.5C119.3,103.6,119.3,103.5,119.3,103.5
			z M117.5,102.2c0.3,0,0.6,0.2,0.6,0.6c0,0.3-0.2,0.5-0.5,0.5c-0.3,0-0.6-0.2-0.6-0.5C117,102.4,117.2,102.2,117.5,102.2z
			 M98.8,106.1C98.8,106.1,98.8,106.1,98.8,106.1l4.1-2.8l0,1.2c-0.1-0.1-0.2-0.1-0.3,0c0,0-0.1,0-0.1,0c-0.2,0.1-0.5,0.5-0.5,0.8
			v0.1c-0.1,0.3-0.3,0.6-0.5,0.7c0,0-0.1,0-0.2,0c-0.1,0-0.2,0-0.2-0.1c0-0.1-0.1-0.3,0-0.5c0.1-0.2,0.2-0.4,0.3-0.5h0.1
			c0,0,0.1,0,0.1,0.1s0,0.1,0,0.2c0,0.1-0.1,0.2-0.2,0.2h0c0,0-0.1,0-0.1,0.1v0.1c0,0,0,0,0.1,0c0.2,0,0.3-0.1,0.4-0.3
			c0,0,0-0.1,0-0.2c0-0.2,0-0.3,0-0.4c-0.1-0.1-0.2-0.2-0.3-0.2c0,0-0.1,0-0.2,0c-0.2,0.1-0.4,0.3-0.5,0.6c-0.1-0.1-0.2-0.2-0.4-0.1
			c-0.1,0-0.2,0.1-0.2,0.2c-0.1,0.1-0.2,0.2-0.2,0.4c0,0.1,0,0.3,0,0.4c0,0.1,0.1,0.2,0.2,0.2c0.1,0,0.2,0,0.3-0.1v0
			c0,0,0-0.1,0-0.1c0-0.1-0.1-0.1-0.1,0l-0.1,0.1h0c0,0-0.1,0-0.1-0.1c0,0,0-0.2,0-0.2c0-0.1,0-0.2,0.1-0.2c0.1,0,0.1-0.1,0.2-0.1
			c0.1,0,0.2,0,0.2,0.1c0.1,0.2,0.1,0.3,0,0.5c0,0.2-0.1,0.3-0.2,0.4c0,0.1-0.2,0.2-0.2,0.2c-0.1,0-0.2,0-0.3,0
			c-0.2-0.2-0.6-0.2-0.8,0c-0.1,0.1-0.2,0.2-0.2,0.4V106.1z M97.6,107c0.1-0.2,0.3-0.4,0.5-0.4c0.2,0,0.3,0.2,0.2,0.4
			c0,0.2-0.3,0.4-0.5,0.4C97.6,107.3,97.5,107.2,97.6,107z M115,161.2c-9.7,0-18.9-1.9-27.2-5.5h54.5
			C133.8,159.2,124.7,161.2,115,161.2z M147.4,153.2H82.5c-2.9-1.5-5.6-3.2-8.2-5h81.4C153.1,150,150.3,151.7,147.4,153.2z M124.8,0
			c-3.5,0-6.9,1-9.8,2.7C112,1,108.7,0,105.2,0H39.7v5h65.4c3,0,5.9,1,8.3,2.7l1.5,1.1l1.5-1.1c2.4-1.8,5.3-2.8,8.3-2.8h65.4V0
			H124.8z"/>
	</g>
</g>
</svg>
