<svg id="Upgrade_to_Pro" data-name="Upgrade to Pro" xmlns="http://www.w3.org/2000/svg" xmlns:xlink="http://www.w3.org/1999/xlink" width="807" height="487" viewBox="0 0 807 487">
  <defs>
    <clipPath id="clip-path">
      <rect id="Retângulo_2" data-name="Retângulo 2" width="807" height="487" rx="20" fill="#515153"/>
    </clipPath>
  </defs>
  <path id="BG" d="M20,0H787a20,20,0,0,1,20,20V467a20,20,0,0,1-20,20H20A20,20,0,0,1,0,467V20A20,20,0,0,1,20,0Z" fill="#363535"/>
  <g id="Pattern" opacity="0.5" clip-path="url(#clip-path)">
    <g id="Grupo_5" data-name="Grupo 5" transform="translate(-689.935 -932.664)">
      <path id="Caminho_1" data-name="Caminho 1" d="M2,1739.738V1336.99c4.57-.143,9.144-.18,13.711-.443,26.154-1.514,52.317-4.631,78.457-4.3,50.472.641,100.938,2.973,151.392,5.168,12.694.552,24.742-1.878,36.343-8.785,11.913-7.092,23.841-14.156,35.608-21.7,29.841-19.14,61.253-28.423,93.92-31.361,16.935-1.523,33.8-5,50.634-8.164s33.533-7.974,50.414-10.342c19.4-2.724,38.288,1.588,55.675,14.729,15.389,11.633,26.261,28.688,30.743,52.813,7.633,41.083-9.047,76.857-38.988,82.6-8.213,1.577-16.681,1.355-25,.862-12.394-.735-24.751-3.353-37.137-3.552-28.048-.452-46.341,17.921-55.753,54.932-6.489,25.521-7.244,51.719-3.393,78.057,9.252,63.28,34.968,109.861,76.007,138.48,55.326,38.58,112.571,41.874,170.125,10.272,53.438-29.341,92.2-82.4,120.262-151.448,19.438-47.834,29.71-99.9,36.242-153.758,2.561-21.122,5.981-42.07,9.585-62.9a86.276,86.276,0,0,1,11.538-30.805c8.544-13.794,19.279-18.7,32.012-15.257a75.05,75.05,0,0,1,7.821,2.879c36.369,14.386,70.156,36.678,102.025,64.878,11.171,9.885,22.291,19.9,33.667,29.307q54.382,44.958,117.614,47.879c26.585,1.244,52.825-2.7,78.934-8.888,33.516-7.944,66.884-17.309,100.853-20.823,11.87-1.227,22.188-7.134,30.452-18.677a198.406,198.406,0,0,0,18.268-30.078c8.2-17.234,15.552-35.3,22.742-53.412,9.418-23.73,18.023-48.09,27.516-71.758,26.584-66.281,60.777-123.518,104.6-169.01,47.7-49.514,101.171-80.095,159.689-93.407,8.925-2.031,18.3-1.921,27.333-.777,7.566.958,9.457,7.629,5.821,17.067a74.307,74.307,0,0,1-7.545,14.616c-5.909,8.781-11.986,17.4-18.418,25.428-12.482,15.569-25.24,30.71-37.917,45.973-24.348,29.317-48.351,59.128-69.109,93.612-18.362,30.5-33.844,63.441-43.817,101.048-8.5,32.047-11.892,64.981-8.038,98.881,5.619,49.426,23.773,88.783,52.127,118.313,48.43,50.438,102.4,60.988,159.764,37.951,43.713-17.553,78.353-54.489,106.872-103.26,19.6-33.527,34.356-71.167,47.92-109.837,7.478-21.321,14.557-42.973,22.894-63.629,6.326-15.674,13.981-30.4,21.749-44.807,5.548-10.292,12.9-18.386,21.432-23.633,32.6-20.048,65.109-40.437,98-59.521,27.333-15.857,55.885-25.378,85.643-27.163,40.1-2.4,77.25,9.981,110.167,42.9a452.95,452.95,0,0,1,32.255,35.961c28.457,35.3,56.391,71.429,84.844,106.735,13.49,16.74,27.7,32.355,41.578,48.481v185.535c-2.914-.393-5.885-.412-8.735-1.24-19.414-5.643-37.059-17.07-51.869-35.3-12.517-15.41-24.2-32.247-35.594-49.307-13.81-20.669-26.769-42.44-40.4-63.35-12.557-19.265-26-37.252-41.23-52.492-29.965-29.992-63.477-42.329-100.063-39.341-20.865,1.7-41.151,7.722-61.1,16.273-31.586,13.543-61.3,33.374-91.333,52.241-17.543,11.019-32.789,26-46.168,45.016-6.245,8.874-12.415,17.851-18.577,26.837-11.016,16.069-21.848,32.388-33.028,48.23-26.2,37.132-56.051,67.214-89.805,89.636-35.873,23.83-73.56,37.345-113.38,36.467-58.3-1.287-109.845-28.949-154.5-81.077-12.824-14.968-24.594-31.693-36.9-47.54-5.355-6.9-10.6-14.026-16.3-20.329-14.282-15.791-23.539-15.073-35.959,3.23-6.11,9-11.361,19.139-17.052,28.7-8.276,13.911-16.265,28.191-24.982,41.543-11.921,18.258-26.924,27.027-44.826,26.01-20.5-1.164-41.009-2.381-61.52-2.675-28.334-.407-56.681-.494-85.009.247-29.13.763-58.2,4.53-87.394,1.154-43.589-5.04-83.514-23.657-117.937-61.956-13.265-14.758-25.448-31.462-37.8-47.76-9.807-12.938-18.877-26.968-28.708-39.867-13.121-17.217-28.3-30.144-45.151-39.069-11.459-6.068-20.21-2.517-26.395,12.121a146,146,0,0,0-8.373,28c-4.252,21.4-7.515,43.181-11.527,64.681-14.938,80.049-41.357,151.515-84.25,209.246-66.063,88.914-144.128,123.92-234.784,95.926-44.382-13.7-82.738-42.926-112.827-91.559-18-29.092-31.6-61.931-42.647-96.956-5.982-18.969-11.419-38.294-17.846-56.958A171.953,171.953,0,0,0,354.9,1460.1c-7.277-12.643-17.516-17.591-28.972-15.244a85.877,85.877,0,0,0-20.312,7.225c-8.39,4.111-16.507,9.322-24.7,14.189a72.113,72.113,0,0,1-38.621,10.552q-35.634-.5-71.277.41c-30.516.745-61.01,2.437-91,11.427-13.264,3.976-26.121,9.614-37.459,20.507-15.453,14.848-21.221,35.381-17.154,60.971a156.819,156.819,0,0,0,11.682,38.33A288.947,288.947,0,0,0,70.194,1665.4c13.983,18.844,28.571,36.81,42.718,55.424a232.465,232.465,0,0,1,16.822,24.4c7.746,13.424,4.893,21.932-7.45,24.075a14.819,14.819,0,0,1-3.227.359c-9.964-.495-20-.167-29.877-1.749-26.9-4.307-52.986-13.761-78.612-25.843C7.836,1740.777,4.862,1740.49,2,1739.738Z" transform="translate(-2 122.402)" fill="#4e4d50"/>
      <path id="Caminho_2" data-name="Caminho 2" d="M2,1312.275v-79.192c4.3.173,8.611.561,12.913.484,53.718-.95,107.435-2.592,161.153-2.711a811.442,811.442,0,0,1,83.323,4.288,164.791,164.791,0,0,0,63.5-5.632,257.535,257.535,0,0,1,77.152-10.669c34.012.652,68.041.145,102.039,1.362a254.823,254.823,0,0,1,46.625,6.54,104.682,104.682,0,0,1,29.392,12.12c43.139,25.265,67.111,70.9,72.586,135.75,4.505,53.356-13.2,103.282-46.839,129.048-9.144,7-19.158,12.178-29.141,16.553-11.04,4.839-22.631,7.191-33.74,11.771-8.467,3.492-17.127,7.406-24.683,13.566-12.193,9.94-16.4,26.281-14.365,45.609,1.878,17.828,8.288,32.483,16.972,45.383a103.658,103.658,0,0,0,35.464,32.973c50.792,28.684,100.443,23.332,148.3-12.416,44.345-33.126,74.375-84.844,94.758-148.208,12.825-39.871,19.37-82.138,24.369-125,2.774-23.789,5.548-47.6,11.426-70.405,3.872-15.024,9.03-29.048,17.223-40.488,10.3-14.38,22.559-20.02,36.958-15.846,2.64.765,5.292,1.449,7.928,2.237,33.6,10.052,65.686,26.86,98,42.71,29.763,14.6,59.4,29.895,89.624,42.4a190.462,190.462,0,0,0,101.743,12.634c25.354-3.678,49.926-12.14,74.022-23.391,20.978-9.8,41.65-20.932,62.783-29.993,14.911-6.393,27.523-17.069,38.465-32.119,4.614-6.344,9.159-12.815,13.459-19.571,20.621-32.4,40.73-65.46,61.8-97.28,36.06-54.457,75.641-103.247,121.06-142.306,33.936-29.184,70.146-51.616,107.476-70.58,51.234-26.027,101.96-53.574,150.8-87.713a294.8,294.8,0,0,1,70.532-36.2c14.41-5.12,28.981-9.565,43.978-7.063,18.407,3.072,23.533,15.447,15.846,38.943-3.911,11.953-9.143,23.053-13.619,34.658-6.265,16.242-12.978,32.225-18.334,49.044a132.168,132.168,0,0,0-5.607,31.569c-1.395,23.441,6.217,35.882,22.843,39.979,12.015,2.962,23.8.227,35.2-4.379q24.86-10.045,49.259-22.282c34.877-17.482,70.064-33.007,107.124-38.606,24.545-3.709,49.013-4.1,73.4,2.268,30.385,7.93,57.207,26.894,81.611,52.612,38.362,40.426,76.284,81.65,111.168,128,10.563,14.033,21.162,28.016,31.875,41.822,3.912,5.042,8.208,9.506,12.33,14.232v92.768c-10.01-11.987-20.428-23.379-29.959-36.07q-52.193-69.491-107.452-134.157a374.41,374.41,0,0,0-26.554-27.774c-18.317-17.363-38.525-28.739-60.287-34.419-25.439-6.641-50.986-6.582-76.576-1.627-28.571,5.532-55.675,18.054-82.033,33.91-25.279,15.206-50.253,31.421-75.683,46.108-14.507,8.378-26.007,21.1-35.048,38.649-8.413,16.33-14.821,34.192-19.92,52.9-6.235,22.884-12.058,45.989-17.977,69.041-10.134,39.471-21.675,77.992-38.543,112.982-23.333,48.4-53.125,86.372-92.358,107.836-49.534,27.1-98.336,24.77-144.978-12.555-31.137-24.917-52.109-61.668-60.222-111.219-6.228-38.048-2.183-74.937,8.02-110.736,11.033-38.71,28.04-72.054,48.106-102.516,26.808-40.7,57.337-75.516,89.239-107.925,27.277-27.711,55.334-53.92,82.85-81.179,10.107-10.012,19.923-20.689,29.331-31.947,4.2-5.022,7.7-11.73,10.38-18.548,4.537-11.542,1.084-19.607-8.22-19.379a57.369,57.369,0,0,0-18.348,3.54c-15.906,5.869-31.689,12.4-47.473,18.894-34.918,14.369-70.05,27.835-104.656,43.553-66.913,30.391-125.194,80.576-173.718,152.216-23.084,34.081-43.2,71.349-61.335,110.762-11.528,25.049-22.7,50.443-34.8,74.942a351.513,351.513,0,0,1-23.1,39.192c-8.7,13.059-19.9,20.177-32.681,22.8-10.4,2.132-20.716,5.116-31,8.178-30.579,9.108-60.745,20.819-91.82,26.811-37.922,7.311-75.272,4.952-112.206-9.535-25.917-10.165-49.764-26.852-73.342-44.458-29.305-21.884-59.235-41.892-90.826-56.479a329.117,329.117,0,0,0-41.322-15.49c-9.457-2.911-18.1,1.843-25.528,10.454a67.1,67.1,0,0,0-14.369,28.281c-3.774,15.645-7.162,31.575-9.63,47.707-4.28,27.968-6.9,56.463-11.687,84.243-12.748,73.99-37.562,138.851-78.838,189.548-52.414,64.376-113.041,88.819-181.844,67.589-30.033-9.267-57.308-27.017-78.645-59.121-20.475-30.806-32.088-66.684-30.246-109.654,1.674-39.057,18.592-64.508,46.45-68.849,9.354-1.457,18.852-1.062,28.277-1.7,11.037-.749,22.18-.592,33.077-2.78,29.472-5.918,50.275-32.109,55.616-70.143,4.908-34.95-1.054-66.64-17.381-94.079-12.894-21.671-30.019-33.988-49.205-41.181-24.178-9.065-48.642-7.076-73.177-3.7-21.2,2.918-42.412,5.915-63.668,7.738-34.434,2.954-67.96,11.207-100.139,29.152-11.264,6.281-22.651,12.388-34.305,16.971-8.2,3.225-16.96,5.327-25.442,5.161-22.932-.45-45.843-2.595-68.771-3.68C126.093,1306.869,64.026,1306.73,2,1312.275ZM1708.4,1482.26c16.973.129,34.6-4.921,51.4-14.924,41.207-24.528,68.608-67.773,85.632-124.718,10.607-35.476,15.074-72.931,17.855-110.906,3.1-42.338,6.407-84.648,9.442-127,1.046-14.594,2.206-29.273,2.116-43.9-.1-16.873-5.61-24.83-17.471-27.066a54.763,54.763,0,0,0-16.107-.534c-21.785,2.419-42.258,11.8-62.017,24.3-38.938,24.625-73.258,59.064-105.451,97.887-19.06,22.984-36.464,48.143-50.716,77.292a271.672,271.672,0,0,0-24.42,74.584c-11.442,67.6,10,129.576,55.055,158.859A96.382,96.382,0,0,0,1708.4,1482.26Z" transform="translate(-2 104.128)" fill="#424142"/>
      <path id="Caminho_3" data-name="Caminho 3" d="M2432.14,1851.071v79.192c-6.722,2.624-13.378,5.653-20.177,7.8-48.2,15.247-96.673,18.618-145.457,5.784-28.762-7.567-56.282-20.907-83.7-34.837q-20.911-10.622-42.225-19.677c-24.988-10.592-48.989-7.172-72.01,10.626-10.614,8.205-21.584,15.592-32.637,22.6-42.666,27.045-87.452,33.089-133.08,21.771-51.787-12.844-103.353-27.551-154.821-42.731-38.864-11.463-77.849-16.063-117.453-11.536-53.376,6.1-106.8,5.389-160.216.91-64.146-5.378-128.325-8.753-192.609-8.732-54.36.016-107.64,10.668-160.1,29.582-25.335,9.133-50.24,20.566-75.432,30.5-37.973,14.972-76.4,19.176-115.351,8.175-10.58-2.988-21.213-5.613-31.78-8.683-16.371-4.754-33.019-8.278-49-14.91-49.541-20.557-100.308-28.833-151.649-32.887-25.32-2-50.633-4.726-75.858-8.345-35.459-5.087-70.9-9.812-106.6-9.5-19.705.172-39.443.706-59.115-.522-47.716-2.979-95.45-5.96-143.085-10.72-39.01-3.9-77.883-10.446-116.827-15.662-24.176-3.238-48.348-6.64-72.564-9.147-39.92-4.135-79.1,5.862-118.4,13.216V1751.516c1.595.377,3.21.635,4.782,1.149,32.037,10.483,64.092,20.866,96.1,31.536,65.233,21.745,131.3,35.771,198.24,41.338,50.435,4.2,100.925,2.485,151.408,2.078,34-.274,68.033.2,102.006,2,42.5,2.246,84.739-.378,126.755-9.184,30.153-6.319,60.178-13.83,90.321-20.263,29.828-6.366,59.75-7.336,89.4,1.669,17.657,5.362,35.082,12.227,52.593,18.514,27.737,9.957,55.843,13.921,84.283,8.313,21.628-4.265,43.241-9.05,64.643-15.1,40.29-11.4,80.787-19.719,121.932-21.613,46.988-2.162,93.932-.75,140.88,2,48.028,2.811,95.868,8.7,143.688,15.434,31.672,4.459,63.456,8.187,95.253,9.868,30.729,1.625,61.552-.541,92.312.386,21.278.641,42.741,1.673,63.726,6.151,33.847,7.225,67.387,17.3,101.019,26.428,24.1,6.544,48.016,14.581,72.234,20.046,31.843,7.186,74.49-6.911,97.311-63.128,4.525-11.149,8.779-22.522,13.489-33.515,6.508-15.189,12.977-30.453,20.121-45.056,6.436-13.153,14.634-24.179,24.51-32.475,15.134-12.712,31.1-15.115,47.287-5.189a126.9,126.9,0,0,1,22.98,18.754c10.506,10.558,20.413,22.284,30.514,33.617,17.7,19.861,36.073,38.354,55.657,54.475,58,47.748,120.189,70.181,187.623,60.108C2406.165,1857.894,2419.12,1854.047,2432.14,1851.071Z" transform="translate(-2 219.23)" fill="#1c1479"/>
      <path id="Caminho_4" data-name="Caminho 4" d="M2432.14,1732.63v90.505c-2.932.448-5.9.654-8.793,1.379-30.706,7.688-61.561,11.228-92.657,5.768-53.137-9.329-99.516-38.946-137.554-92.008-11.419-15.931-21.141-34.21-31.921-51.063-8.972-14.027-17.9-28.222-27.687-41.087-9.336-12.266-20.731-20.312-33.392-24.28-20.241-6.343-39.11-.408-57.073,12.845-20.023,14.772-35.936,36.128-48.355,62.2-8.2,17.213-15.093,35.646-22.43,53.645-5.871,14.4-10.914,29.539-17.4,43.369-18.8,40.1-45.815,56.077-79.425,48.6-30.1-6.7-60.045-14.767-90-22.623s-59.914-16.088-90.482-17.782c-26.694-1.479-53.4-3.036-80.11-3.274-40.813-.362-81.422-4.52-121.982-10.3-34.627-4.933-69.208-10.74-103.9-14.452q-89.223-9.542-178.746-10.915c-31.333-.515-62.612,1.3-93.663,7.737-23.75,4.926-47.436,10.47-71.219,15.042-34.173,6.568-67.865,3.615-100.737-11.951q-22.994-10.889-45.97-21.849c-32.53-15.518-65.628-18.251-98.877-6.2-25.83,9.363-51.548,19.619-76.873,31.345-62.684,29.023-126.82,45.88-192.875,47.845q-93.9,2.795-187.806,5.084a634.892,634.892,0,0,1-102.7-5.4c-57.319-7.875-113.594-23.486-168.789-46.447C47.729,1768.8,24.9,1758.458,2,1748.469V1723.58c2.815,1.212,5.7,2.172,8.434,3.672,91.25,50.05,185.6,75.837,283.886,70.707,24.809-1.295,49.652-2.121,74.4-4.615q37.905-3.819,75.644-10.663c23.547-4.3,46.989-8.944,70.788-10.308,28.287-1.62,56.615-3.839,84.754-8.038,44.075-6.577,86.045-24.283,126.029-51.18,30.033-20.2,57.8-45.459,84.8-72.534,9.2-9.224,18.692-17.9,28.185-26.533,7.481-6.805,15.849-9.864,24.711-8.262,8.269,1.494,16.791,2.6,24.585,6.371,14.753,7.13,29.214,15.573,43.521,24.34,16.057,9.838,31.67,21.088,47.728,30.916,23.227,14.216,47.6,22.743,73.014,22.625,21.563-.1,43.219-.851,64.663-3.771,45.023-6.132,90.016-6.1,135.081-2.41q63.456,5.2,126.906,10.563c21.823,1.826,43.673,3.213,65.461,5.661,31.475,3.535,62.855,9.084,94.365,11.545,44.995,3.514,90.06,5.643,135.117,7.187,43.74,1.5,87.39,4.105,130.922,10.543,21.22,3.138,42.511,3.864,63.867.985,18.54-2.5,33.636-12.756,44.715-33.944,3.5-6.695,7.2-13.193,10.723-19.865,5.77-10.919,11.348-22.04,17.23-32.84,20.929-38.435,45.439-71.615,74.493-98.006,17.054-15.49,35.07-28.2,54.746-35.912,39.832-15.61,74.777-3.711,104.317,36.92a276.176,276.176,0,0,1,19.767,31.369c8.427,15.646,15.895,32.294,24,48.287,8.414,16.6,16.463,33.677,25.794,49.233,22.519,37.536,51.491,59.978,86.015,68.74C2365.283,1753.149,2398.9,1746.42,2432.14,1732.63Z" transform="translate(-2 195.126)" fill="#1c1479"/>
      <path id="Caminho_5" data-name="Caminho 5" d="M2,810.473v-76.93c2.69-.016,5.38-.1,8.07-.035,20.237.508,40.472,1.246,60.711,1.524,21.864.3,43.731.07,65.6.284a110.224,110.224,0,0,1,42.364,8.452c31.751,13.465,63.534,26.89,94.93,41.86,31.749,15.138,60.64,38.131,84.988,70.614,13.816,18.432,26.527,38.608,38.9,58.988,11.861,19.537,22.608,40.387,33.9,60.594,17.239,30.841,38.173,55.326,63.9,71.26q27.24,16.873,45.62,49.4c14.289,25.132,32.328,43.239,53.525,55.009,13.262,7.365,26.715,14.361,40.453,19.642,9.512,3.658,19.631,4.448,29.529,5.8,3.372.462,6.981-.821,10.335-2.073,6.739-2.516,10.725-9.04,10.966-18.7a169.037,169.037,0,0,0-1.285-22.419c-1.056-9.669-3.176-19.153-3.861-28.852-1.29-18.3,3.973-28.579,16.8-33.019a70.212,70.212,0,0,1,17.6-3.2c20.423-1.6,40.357,3.168,60.044,10.14,39.537,14,79.247,26.013,120.212,28.948,37.9,2.717,75.532,1.394,112.913-8.2,36.882-9.465,69.83-28.9,93.383-72.075a27.985,27.985,0,0,1,1.657-2.48c7.905-11.456,16.413-21.857,26.554-29.366,15.015-11.116,29.746-23.085,45.118-33.139a1188.754,1188.754,0,0,0,130.741-99.446c12.583-10.977,25.312-21.746,38.46-31.309a219.822,219.822,0,0,1,33.351-20.154c16.349-7.913,32.52-5.772,47.621,6.574,7.681,6.281,15.109,13.163,22.655,19.764,7.089,6.2,14.032,12.765,21.305,18.511,15,11.848,31.137,15.274,47.711,8.833,11.9-4.627,23.829-10.042,34.99-17.353,49.642-32.525,98.073-68.227,143.74-110.865,15.484-14.457,30.929-29,46.524-43.223,44.66-40.729,91.348-76.077,141.68-101.216a496.628,496.628,0,0,0,79.168-48.718c25.487-19.358,52.381-34.047,80.575-43.5,33.045-11.079,66.156-21.883,99.443-31.405,37.527-10.736,72.416-29.886,104.2-59.647,15.014-14.059,29.557-29.106,44.23-43.867,13.141-13.219,25.946-27.118,39.338-39.814a99,99,0,0,1,22.133-16.208c14.778-7.634,24.683.864,28.008,22.5,2.85,18.551.261,36.312-5.654,52.707-5.071,14.056-10.872,27.94-17.861,40.222-10.731,18.854-22.849,36.157-34.19,54.347-4.952,7.942-9.98,15.965-14.024,24.8-8.571,18.727-7.056,35.243,4.217,51.118a79.9,79.9,0,0,0,11.233,12.877,155.36,155.36,0,0,0,17.587,13.912c28.431,19.1,58.684,27.587,90.031,29.422v97.293c-3.184-.763-6.372-1.5-9.553-2.291-28.694-7.145-57.294-14.835-85.367-26.02-45.318-18.058-88.552-43.412-130.924-71.924q-29.536-19.873-59.433-38.7c-36.056-22.643-73-24.054-110.706-8.631-25.524,10.441-49.3,26.481-73.2,42.33-18.507,12.271-37.074,24.663-56.254,34.6-37.794,19.58-74.565,42.162-109.687,69.67-27.064,21.2-53.761,43.362-80.182,66.09-61.2,52.649-125.607,97.073-188.955,144.2-8.762,6.518-18.22,11.46-27.645,15.944-14.471,6.883-29.511,10.611-44.6,5.38-10.133-3.512-19.985-9-29.653-14.63-11.943-6.962-23.389-15.6-35.364-22.435-20.885-11.925-42.111-12.068-63.22-.818a235.868,235.868,0,0,0-23.077,13.722,733.093,733.093,0,0,0-77.932,62.388,209.813,209.813,0,0,0-50.467,69.212c-15.841,34.8-38.419,57.338-65.682,72.033-32.349,17.436-66.132,24.591-100.365,28.518a394.691,394.691,0,0,1-79.294,1.018c-30.454-2.645-60.843-6.19-90.874-13.793-23.082-5.843-45.965-13.2-68.978-19.591-7.913-2.2-15.9-4.421-24.059-1.77-8.983,2.919-13.671,9.892-14.014,22.73a236.175,236.175,0,0,0,.989,23.647c.918,12.362,2.753,24.658,3,37.029a137.947,137.947,0,0,1-2.485,28.891c-2.057,10.463-7.965,16.228-15.968,15.343a49.133,49.133,0,0,1-15.77-4.314c-10.711-5.121-21.193-11.176-31.776-16.823-33.514-17.878-67.073-35.593-100.533-53.663q-36-19.44-63.11-58.009c-12.779-18.215-27.228-33.1-43.5-44.7a155.849,155.849,0,0,1-36.194-35.9c-14.943-20.7-29.645-41.774-43.882-63.418-33.958-51.628-74.255-89.4-122.123-111.045-18.483-8.354-36.962-16.731-55.519-24.755-18.642-8.063-37.714-13.266-57.274-13.707-28.61-.644-57.229-.527-85.837-1.229C42.44,812.737,22.222,811.423,2,810.473Z" transform="translate(-2 38.012)" fill="#4e4d50"/>
      <path id="Caminho_6" data-name="Caminho 6" d="M2,395.7c6.057-3.152,12.277-5.8,18.141-9.546C42.8,371.688,65.1,372.685,87.173,388.427c6.245,4.453,12.6,8.66,18.627,13.647a217.414,217.414,0,0,0,75.059,40.952c11.316,3.5,22.491,7.929,33.67,12.235,36.429,14.029,68.761,39.26,98.847,70.658,27.305,28.5,52.249,60.763,76.856,93.562q17.866,23.812,35.388,48.125A612.582,612.582,0,0,1,485.229,770.1c7.763,16.776,15.3,33.779,23.495,50.135a352.84,352.84,0,0,0,19.11,33.576c13.277,20.512,30.153,27.908,49.729,25.1,15.4-2.207,30.208-7.495,44.973-13.721,11.845-4.994,23.869-9.6,36.041-12.527,20.912-5.036,41.516.172,61.572,8.107,26.2,10.365,52.189,21.783,78.1,33.49A324.717,324.717,0,0,0,898.9,921.138c29.121,3.069,58.246,4.078,87.354,1.31,94.643-9,182.1-47.142,258.94-126.936,34.87-36.21,64.438-80.122,92.114-126.635,18.626-31.306,37.042-62.864,55.986-93.79,12.467-20.353,25.96-39.517,41.667-55.069,8.316-8.234,17.133-15.942,26.416-21.714,21.775-13.538,43.185-10.757,63.391,6.84,6.393,5.568,12.185,12.464,18.393,18.468,8.419,8.141,16.662,16.769,25.535,23.831,17.439,13.881,36.081,15.868,54.58,5.248a193.327,193.327,0,0,0,33.561-24.614c20.889-19,39.432-42.234,56.164-67.974,23.1-35.535,29.367-77.825,23.376-124.216a283.781,283.781,0,0,0-19.275-71.626c-10.193-24.832-21.35-48.89-31.739-73.57-8.606-20.445-17.013-41.079-24.923-62.06a203.843,203.843,0,0,1-11.7-49.127c-2.381-21.151.512-40.32,10.593-57.148,3.729-6.223,6.522-13.538,9.742-20.356h97.206c2.5,3.055,4.836,6.453,7.544,9.1,9.263,9.062,19.162,17,27.891,26.948,16.143,18.4,27.49,41.44,30.274,71.107.873,9.31.954,18.775,1.24,28.179.758,24.829.92,49.677,4.326,74.253,8.165,58.919,28.856,105.832,66.5,136.6,26.415,21.588,55.411,28.848,85.553,28.144,37.882-.886,74.239-12.473,109.606-31.243,56.048-29.746,104.96-73.266,142.815-139.466,9.05-15.826,19.738-29.925,30.209-44.042,12.458-16.8,26.282-31.256,41.551-42.87,16.651-12.665,34.192-17.361,53.111-13.322,22.535,4.81,44.13,13.9,65.241,25.586v36.2c-5.968-3.475-11.81-7.493-17.935-10.3a303.263,303.263,0,0,0-30.247-12.356c-17.862-5.955-34.792-1.338-50.9,10.509-15.438,11.357-28.885,26.486-41.36,43.249-13.226,17.772-25.991,36.214-38.939,54.389-18.362,25.776-38.435,48.585-60.781,67.284q-64.021,53.568-136.7,77.519c-39.36,13.03-79.262,18.855-119.645,9.577-36.327-8.346-68.4-29.244-95.979-63.482-17.083-21.212-28.937-46.912-33.061-78.454-3.29-25.169-5.7-50.6-7.835-76.016-2.1-25.066-2.4-50.485-5.212-75.366-5.621-49.651-26.738-81.12-61.249-94.715-15.891-6.261-31.6-4.951-46.313,6.479-14.578,11.326-21.6,28.664-20.691,52.185.643,16.54,4.619,31.655,9.641,46.354,7.709,22.566,17.62,43.255,28.529,62.959,12.218,22.068,25.17,43.351,37.233,65.578,8.132,14.985,15.692,30.659,22.745,46.679a130.608,130.608,0,0,1,11.12,47.978c2.058,56.244-9.341,106.218-38.4,146.02-17.7,24.239-36.806,46.615-56.173,68.272-14.067,15.73-29.352,29.438-44.552,43.052a105.088,105.088,0,0,1-34.946,20.519c-13.415,4.848-26.426,3.548-38.427-6.055-8.389-6.712-16.285-14.741-24.028-22.874-7.111-7.468-13.614-16.051-20.584-23.793-6.816-7.571-14.381-13.238-22.952-16.157-12.934-4.405-25.2-1-37.145,5.942-14.635,8.5-27.565,20.985-39.042,35.925-16.775,21.838-33.068,44.421-49.183,67.215-18.019,25.486-35.271,52.039-53.461,77.279-34.247,47.521-71.519,89.608-114.81,120.393-72.545,51.589-149.964,77.644-230.841,84.2-26.633,2.157-53.445,1.921-80.119.583-21.516-1.079-43.052-4.413-64.387-8.636-28.029-5.549-55.786-13.773-83.814-19.345-32.628-6.487-65.117-4.6-97.227,7.049-19.832,7.2-39.721,14.336-59.824,19.763-27.854,7.519-51.9-3.169-70.614-33.824-5.243-8.588-10.485-17.369-14.7-26.942-10.465-23.739-20.139-48.158-30.506-71.983-10.925-25.107-21.359-50.779-33.644-74.556-28.673-55.5-64.694-101-103.184-142.872q-43.65-47.48-96.809-68.82c-10.633-4.251-21.26-8.63-32.032-12.086-30.007-9.63-58.106-25.467-84.161-48.459-6.608-5.83-13.613-10.78-20.443-16.117-22.625-17.68-45.835-20.03-70.113-6.567C19.99,449.022,10.833,451.2,2,454.525Z" transform="translate(-2 -2)" fill="#424142"/>
      <path id="Caminho_7" data-name="Caminho 7" d="M2432.14,1577.026c-9.27,2.422-18.478,5.567-27.822,7.122-22.543,3.749-42.7-5.151-60.741-24.1-13.06-13.715-24.021-30.349-34.016-48.21-13.631-24.358-26.57-49.483-40.488-73.51-12.042-20.788-24.469-41.26-37.737-60.513-20.029-29.061-44.42-47.676-73.339-53.3-22.534-4.384-44.684-.7-66.573,7.246-22.554,8.192-44.161,19.978-65.048,34.23-19.154,13.069-38.2,26.5-56.935,40.687-9.209,6.974-17.8,15.656-26.323,24.246-9.626,9.707-18.984,19.955-28.235,30.357-42.528,47.819-91.526,76.076-144.174,93.353a225.835,225.835,0,0,1-95.677,10.413c-33.276-3.607-65.483-14.518-96.978-29.7-10.712-5.164-21.359-10.6-32.1-15.643a164.8,164.8,0,0,0-17.078-6.988c-12.9-4.379-25.3-2.269-36.683,7.423a209.8,209.8,0,0,0-20.008,19.176c-15.853,17.592-33.688,25.565-53.941,26.3-39.207,1.427-78.247-1.345-117.285-5.772a894.132,894.132,0,0,0-121.353-5.726,582.464,582.464,0,0,1-64.72-1.736c-41.458-3.674-78.866-23.448-112.157-58.413-19.5-20.485-36.94-44.021-53.679-68.682-10.586-15.6-21.1-31.3-32.038-46.408-10.267-14.177-15.922-13.126-23.245,4.455-4.6,11.037-8.436,22.754-12.085,34.487-14.222,45.74-30.235,90.067-51.111,130.736-35.892,69.92-81.084,123.766-138.5,156.437-37.567,21.378-76.758,30.315-117.193,27.584-30.081-2.031-59.329-10.5-87.7-24.894-33.811-17.15-63.111-44.108-88.853-78.863-11.257-15.2-22.028-31.105-33.41-46.115a265.02,265.02,0,0,0-22.339-26.024c-9.715-9.841-21.079-14.489-32.954-12.2q-46.088,8.885-91.986,19.63c-8.134,1.916-16.06,6.549-23.709,11.145a59.64,59.64,0,0,0-14.247,12.679c-8.66,10.258-11.452,23.89-7.988,38.831a113.419,113.419,0,0,0,9.254,26.152c6.153,11.849,13.3,22.748,20.406,33.564,7.661,11.662,15.939,22.535,23.585,34.213a77.546,77.546,0,0,1,8.164,16.73c3.452,9.906,1.547,18.382-5.819,22.259a79.83,79.83,0,0,1-22.683,7.459c-20.194,3.761-40.47,1.466-60.634-.7-33.975-3.656-67.42-11.95-99.936-26.495C29.909,1733.632,16,1726.392,2,1719.571v-11.313a66.225,66.225,0,0,1,6.2,2.481c27.161,13.959,55,24.3,83.6,30.506,20.035,4.347,40.161,7.085,60.467,5.676a46.665,46.665,0,0,0,11.993-2.237c12.162-4.193,14.373-12.756,6.637-26.807a161.522,161.522,0,0,0-13.239-19.8c-10.613-13.952-21.92-26.926-32.114-41.437-10.745-15.294-20.866-31.519-30.6-48.092-6.174-10.511-10.322-22.968-12.825-36.275-4.33-23.018.505-42,14.815-54.975,5.823-5.28,12.252-9.918,18.87-12.674a207.98,207.98,0,0,1,34.62-11.279c29.376-6.523,59.065-8.546,88.76-9.121,18.277-.354,36.008-3.436,53.158-12.6a96.8,96.8,0,0,1,16.339-6.452c15.194-4.872,28.542.252,39.065,16.379a291.064,291.064,0,0,1,16.9,30.241c8.261,16.759,15.816,34.195,23.973,51.058,14.729,30.452,31.322,58.848,52.2,81.423,57.71,62.4,123.561,81.849,194.685,67.153,57.695-11.921,106.356-50.312,147.557-107.286,37.513-51.872,63.68-113.771,80.693-183.273,5.928-24.218,10.518-49.069,16.224-73.4a161.92,161.92,0,0,1,9.226-28.694c5.231-11.716,12.35-14.087,20.9-6.973a153.726,153.726,0,0,1,22.821,23.171c8.943,11.411,16.823,24.44,25.226,36.684,11.949,17.413,23.512,35.4,36.03,51.982,30.05,39.794,65.132,66.691,106.115,77.559,28.545,7.571,57.361,8.629,86.282,6.756,39.958-2.589,79.86-.98,119.785,1.917,29.1,2.111,58.241,2.945,87.369,4.065,13.814.532,25.978-6.247,36.492-18.5,5.794-6.75,11.168-14.2,16.713-21.369,5.742-7.422,11.325-15.1,17.218-22.279,13.628-16.61,28.838-19.835,45.072-8.561,9.158,6.36,17.879,13.953,26.774,21.05,16.389,13.075,32.246,27.7,49.234,39.015,53.187,35.434,109.013,46.923,167.124,30.827,56.518-15.656,106.639-50.126,150.114-102.955,16.287-19.792,31.994-40.515,47.893-60.923,13.807-17.725,28.834-32.8,46.076-43.481,10.11-6.262,19.936-13.411,29.976-19.9,28.714-18.562,58.02-34.809,89.23-43.358,23.823-6.526,47.67-7.932,71.525-.275,28.24,9.064,51.565,30.012,71.978,58.033,17,23.333,31.437,49.691,46.148,75.745,9.19,16.276,18.448,32.5,28.088,48.255,9.85,16.1,20.861,30.573,33.746,41.991,19.937,17.662,41.7,23.653,65,19.632Z" transform="translate(-2 162.932)" fill="#1c1479"/>
      <path id="Caminho_8" data-name="Caminho 8" d="M1038.86,2c4.887,5.33,9.8,10.613,14.651,16.008a101.565,101.565,0,0,1,7.385,8.8c4.573,6.4,4.309,10.551-1.528,14.946a96.042,96.042,0,0,1-16.308,9.881c-25.77,12.33-51.515,24.789-77.457,36.381-42.91,19.171-86.02,37.467-128.918,56.684-11.013,4.934-21.6,11.753-32.275,18.085-3.615,2.146-7.323,4.747-9.482,11.511,2.082,1.506,3.776,3.5,5.657,3.942,5.042,1.172,10.164,2.343,15.254,2.342,57.5-.018,115.013.484,172.5-.712,35.09-.729,69.944-7.214,104.7-13.889,30.461-5.85,60.831-12.7,91.35-17.862,10.026-1.7,20.555-.956,30.561,1.253,15.094,3.333,21.278,17.357,16.971,37.834-2.555,12.147-6.7,23.788-10.938,35.062-4.635,12.323-10.477,23.75-15.315,35.937-10.525,26.516-8.458,39.576,8.847,58.135,7.063,7.575,14.416,14.628,21.4,22.332,20.98,23.133,31.371,54.024,33.2,90.782,2.661,53.392-8.142,102.169-27.193,147.693-25.078,59.927-61.174,103.845-104.373,136.847-36.893,28.185-76.405,45.152-118.244,51.1-75.913,10.8-148.478-5.91-216.732-54.129-33.787-23.868-63-56.446-88.034-96.427-26.151-41.758-42.169-89.765-48.25-144.449-.993-8.929-2.308-17.794-3.626-26.645-3.782-25.386-14.714-41.656-32.7-47.736-11.248-3.8-22.8-5.8-34.134-9.182-7.619-2.273-15.368-4.558-22.556-8.59-13.5-7.576-19.31-21.738-18.254-42.025.313-6,1.156-11.943,1.81-17.9.45-4.1,1.181-8.15,1.457-12.266.715-10.672-2.181-15.167-9.84-13.457A76.736,76.736,0,0,0,529,299.7c-21.9,11.788-43.589,24.37-65.492,36.159-10.561,5.685-21.329,10.708-32.168,15.274-26.933,11.349-51.6,4.38-72.654-21.384-13.964-17.093-26.994-35.815-39.62-54.871-19.98-30.154-38.975-61.581-58.94-91.755-18.9-28.56-39.362-54.821-62.264-77.205-32.706-31.966-69.146-48.262-108.78-52.366A243.974,243.974,0,0,0,8.429,58.238c-2.1.484-4.284.235-6.429.328V42.727c1.858-.417,3.729-.752,5.574-1.266,48.583-13.528,96.581-10.2,143.872,10.332,30.833,13.388,58.1,36.332,83.061,64.34,27.555,30.922,54.325,63.2,81.478,94.825,15.766,18.361,31.84,36.153,49.751,50.383,12.509,9.937,25.645,17.6,39.878,21.271,25.1,6.467,48.922-.066,71.739-14.6,13.243-8.433,26.221-17.758,39.025-27.44,37.357-28.249,76.01-52.263,116.726-69.3,36.934-15.454,73.85-31.161,111.172-44.6C805.633,104.581,867.324,84.3,928.845,63.089c14.657-5.054,29.246-10.535,43.762-16.326,5.01-2,10.563-3.461,14.317-11.666-2.262-3.09-4.235-6.585-6.733-9.036-6.4-6.278-13.081-12-19.549-18.15-1.661-1.578-2.948-3.92-4.407-5.911ZM1142.8,196.969c-12.989,1.974-24.257,3.641-35.517,5.407-34.851,5.462-69.641,11.9-104.565,16.2-39.512,4.863-79.148,7.731-118.721,11.633-36.647,3.613-73.03,10.106-108.973,20.861-29.07,8.7-57.739,19.455-84.747,37.186a124.923,124.923,0,0,0-23.487,19.765c-13.933,15.172-13.674,28.374-.178,44.062,4.77,5.546,9.753,10.749,14.4,16.481,9.383,11.569,13.364,26.219,11.789,43.579-.847,9.337-1.914,18.646-3.139,27.9-2.914,22.028-3.855,44.109-1.4,66.339,3.36,30.457,12.556,57.494,25.088,82.484,26.715,53.271,62.26,92.033,104.252,118.576,66.7,42.164,136.665,56.282,209.314,41.65,53.469-10.768,101.72-39.018,144.254-85.717,30.85-33.873,55.6-74.695,71-125.551,10.434-34.463,16.344-70.172,12.237-107.961-2.68-24.675-9.6-46.6-23.668-62.478-7.469-8.432-16.058-15.217-24.659-21.325-8.626-6.126-17.976-10.229-26.856-15.7-6.4-3.943-12.9-7.923-18.724-13.226-10.421-9.484-12.369-20.607-6.543-35.887,3.285-8.616,7.663-16.4,11.231-24.828,3.7-8.729,7.751-17.379,10.324-26.771,4.514-16.479-.155-27.44-12.632-30.387C1155.743,197.573,1148.4,197.561,1142.8,196.969Z" transform="translate(-2 -2)" fill="#1c1479"/>
      <path id="Caminho_9" data-name="Caminho 9" d="M2432.14,1681.359c-9.653,3.371-19.247,7.117-28.969,10.03-16.165,4.842-32.449,7.166-49.045,4.377-24.764-4.161-45.911-18.535-63.931-42.351-11.835-15.641-21.618-33.639-30.789-52.325-9.308-18.964-17.973-38.6-27.931-56.868-9.945-18.245-20.442-36.123-31.954-52.432-18.414-26.085-40.574-43.6-66.919-49.158-20.1-4.243-39.819-.986-59.239,6.851a221.139,221.139,0,0,0-62.033,38.251c-22.919,19.831-45.163,41.205-67.491,62.341-10.27,9.723-19.991,20.567-30.054,30.721-6.343,6.4-12.839,12.506-19.3,18.678-15.09,14.417-31.689,22.259-50.061,22.868-56.813,1.886-112.874,13.727-168.959,25.2-19.219,3.932-38.378,9.24-57.7,11.149-22.026,2.175-44.3,3.215-66.308,1.306-61.714-5.349-123.5-7.356-185.26-10.772-34.234-1.894-68.405-6.157-102.591-9.63-42.857-4.353-85.722-5.631-128.65-2.22-23.2,1.843-46.408,2.156-69.542-1.749-26.886-4.54-52.125-16.332-75.5-35.239C971,1585.1,952.676,1568.4,933.846,1552.91c-11.376-9.358-23.265-17.491-34.843-26.379-9.334-7.163-17.753-4.845-25.309,4.683-7.606,9.589-14.991,19.531-22.334,29.517-16.238,22.087-31.782,45.25-48.692,66.277-46.822,58.222-100.545,98.367-162.19,116.627-37.244,11.032-74.907,13.173-112.734,8.6-26.065-3.151-52.047-7.609-78.083-11.26-6.436-.9-12.932-1.01-19.4-1.354-12.759-.676-24.33,3.4-35.112,13.821-18.15,17.537-39.05,25.352-60.629,29.382-41.32,7.715-82.9,8.478-124.456,6.387-69.155-3.479-135.512-25.577-199.618-61.51-2.7-1.513-5.623-2.252-8.441-3.352V1715.3c40.293,23.087,81.674,40.964,124.716,50.938,37.944,8.791,76.191,11.52,114.552,9.744,18.289-.846,36.588-3.43,54.745-6.713,7.864-1.422,15.678-5.676,22.984-10.282,11.55-7.28,16.978-20.427,15.464-38.39-.693-8.227-1.821-16.384-2.573-24.606-2.532-27.694,6.2-39.8,25.725-33.608,11.219,3.559,22.193,9.43,32.8,15.817,23.807,14.339,47.725,28.066,72.717,37.99,35.747,14.2,72.136,22.862,109.295,23.223,82.316.8,154.244-38.075,216.54-112.664,25.542-30.584,47.291-66.05,67.876-103.019,7.787-13.984,15.61-27.938,23.691-41.588a102.322,102.322,0,0,1,10.441-14.109c4.9-5.756,10.276-6.241,15.648-1.04,9.535,9.231,19.127,18.356,28.523,27.856,16.615,16.8,32.85,34.347,49.7,50.658,22.114,21.4,45.969,37.924,72.373,46.593,20.615,6.768,41.568,9.3,62.654,9.5,14.569.14,29.147-.669,43.714-1.368,45.964-2.207,91.688,3.094,137.463,7.709,32.831,3.31,65.726,5.966,98.626,7.174,33.722,1.237,67.483.533,101.228.343,24.12-.137,47.87-5.385,71.47-11.768,21.028-5.687,42.221-7.932,63.6-8.2,23.747-.293,47.511-.361,71.231-1.749,38.962-2.281,77.132-12.523,115.1-24.369,3.95-1.233,7.875-2.652,11.854-3.663,25.269-6.422,48.7-19.629,70.712-37.8,22.071-18.22,43.986-36.809,65.931-55.323,24.278-20.482,48.91-40.028,75.2-55.121,23.111-13.266,46.841-23.022,72.1-23.493,25.305-.47,48.456,9.38,69.662,28.5a207.911,207.911,0,0,1,40.259,50.386c12.737,21.935,24.552,44.918,36.712,67.5,10.7,19.874,21.211,39.947,32.049,59.671,3.1,5.645,6.93,10.555,10.625,15.512,27.254,36.56,59.625,46.38,95.845,35.243,7.894-2.427,15.626-5.867,23.449-8.751a52,52,0,0,1,5.45-1.4Z" transform="translate(-2 180.781)" fill="#1c1479"/>
      <path id="Caminho_10" data-name="Caminho 10" d="M2,483.069c16.97,1.106,33.081-6.232,49.547-9.989,21.972-5.013,43.018-1.837,63.108,11.879,6.544,4.468,13.187,8.707,19.534,13.674A269.294,269.294,0,0,0,213.9,541.946c12.045,4.108,23.923,9.219,35.794,14.255,45.344,19.236,83.808,54.572,118.78,98.415,36.823,46.164,65.364,101,89.1,161.251,10.269,26.069,21.215,51.648,32.443,76.938,7.405,16.681,16.234,32.06,27.324,44.435,21.9,24.434,46.749,34.073,74.323,26.21,16.361-4.665,32.432-11.324,48.621-17.154,33.377-12.02,67.143-13.006,101.215-7.578,52.313,8.335,104.687,15.3,157.462,10.911,29.348-2.44,58.822-3.159,88.029-7.456,80.058-11.784,157.066-39.335,228.615-92.436,35.266-26.173,66.6-60.18,95.853-97.838,27.187-35,53.468-71.38,80.622-106.436a444.01,444.01,0,0,1,37.582-42.85,119.462,119.462,0,0,1,28.587-20.7c17.121-9.028,33.546-5.252,48.077,10.67,7.213,7.9,13.853,16.813,21,24.835,7.353,8.247,14.745,16.524,22.592,23.792,14.191,13.139,29.684,15.817,45.614,7.278,10.548-5.654,21.27-11.426,30.9-19.512,16.388-13.767,32.583-28.285,47.759-44.5,24.862-26.555,48.869-54.674,73.184-82.224,15.257-17.286,27.689-37.985,37.69-61.578,3.987-9.407,7.9-18.89,12.175-28.037a174.905,174.905,0,0,1,10.169-18.972c7.12-11.322,16.281-16.189,26.93-13.326a221.039,221.039,0,0,1,25.9,8.909c18.383,7.493,36.656,15.329,55.653,19.61,24.7,5.566,49.526,5.976,74.284,3.184,69.051-7.79,133.466-37.8,194.681-82.031,31.883-23.04,60.014-53.369,85.78-88.173,13.189-17.816,26.336-35.783,40.33-52.316a237.417,237.417,0,0,1,31.158-30.233c17.162-14.033,35.771-16.5,54.66-7.643,11.976,5.614,23.59,12.732,35.366,19.176v29.414c-9.207-6.232-18.236-13.058-27.658-18.572-18.025-10.546-35.83-8.572-53.171,3.7-13.821,9.781-26.227,22.461-37.851,36.6-15.669,19.067-30.919,38.811-46.677,57.733-41.688,50.063-89.533,84.741-141.058,110.607-53.673,26.944-108.779,44.319-165.679,48.843-25.544,2.032-51.251.1-76.884-.105-4.854-.039-9.708-.609-14.561-.6-20.369.023-38.344,9.115-52.64,29.6-24.255,34.751-52.22,63.038-79.957,91.833-22.96,23.837-45.449,48.557-68.248,72.7-19.6,20.761-39.994,39.895-62.191,54.879a144.968,144.968,0,0,1-24.028,13.248c-15.009,6.4-29.637,3.754-42.631-8.533-9.571-9.051-18.359-19.739-27.358-29.935-6.283-7.119-12.121-15.026-18.533-21.9-12.437-13.335-26.408-16.14-41.4-10.361-12.4,4.781-23.765,12.906-33.819,23.728-18.583,20-36.767,40.757-54.781,61.758-23.619,27.536-46.62,56.111-70.4,83.361-52.358,59.988-112.277,99.351-177.059,125.4a787.04,787.04,0,0,1-139.188,41.1c-36.039,7.243-72.1,14.375-108.007,22.768-29.427,6.88-58.51,5.419-87.76-1.474-20.194-4.761-40.481-9.147-60.85-11.96-30.7-4.242-60.809,1.5-90.353,13.847-11.866,4.961-23.9,9.253-35.991,13.014-11.247,3.5-22.547,1.7-33.7-1.826-28.124-8.9-51.735-28.3-69.248-60.465-9.614-17.66-18.335-36.346-26.733-55.2-11.685-26.235-22.393-53.318-34.053-79.576-18.307-41.226-40.148-78.414-66.118-110.84-36.987-46.182-79.954-76.62-127.586-94.43-31.892-11.923-62.984-26.544-92.731-46.7-20.861-14.135-43.043-19.326-66.136-16.9-10.226,1.076-20.431,2.615-30.666,3.442-14.8,1.2-29.619,1.935-44.429,2.869Z" transform="translate(-2 16.971)" fill="#4e4d50"/>
      <path id="Caminho_11" data-name="Caminho 11" d="M2,1041.3c59.067,5.608,118.187,1.18,177.279,1.556,48.56.308,94.585,15.585,139.4,40.361,25.579,14.141,51.344,27.627,77.05,41.314,44.744,23.823,90.917,40.288,137.922,52.631,23.9,6.275,47.258,15.346,69.574,29.161,35.02,21.677,62.993,54.766,83.6,99.976,14.983,32.865,26.835,67.9,37.659,103.706,2.829,9.357,5.71,18.775,9.322,27.558,5.817,14.142,12.932,15.5,20.548,3.357a120.935,120.935,0,0,0,12.331-26.32c6.488-19.848,12.331-40.147,17.815-60.587,9.093-33.884,17.916-67.934,31.16-99.2a215.726,215.726,0,0,1,15.987-31.1c8.619-13.61,19.93-18.053,32.959-15.906,36.479,6.012,72.31,16.918,108.256,27.019,31.482,8.847,63.1,16.776,95.233,18.931,54.42,3.651,107.915-3.528,159.036-31.627,17.52-9.63,34.519-21.4,51.179-33.72,24.816-18.35,49.78-35.909,76.005-50.238,15.994-8.74,31.282-20.469,46.183-32.548,28.931-23.452,57.779-47.2,85.917-72.439,54.159-48.589,110.424-91.425,169.731-126.463,36.818-21.752,71.862-48.484,107.094-74.739,47.929-35.717,97.465-66.57,149.77-87.509,24.83-9.94,50.336-16.666,75.632-24.217,17.921-5.348,35.928-10.311,54.03-14.25,33.5-7.288,66.337-2.372,97.778,15.2,19,10.62,37.858,22.242,55.786,35.951,40.467,30.943,80.478,63.073,120.366,95.459,32.955,26.758,63.7,58.094,93.57,91.134,7.158,7.918,14.637,15.268,21.969,22.879v54.3c-3.019-3.021-6.167-5.822-9.037-9.1-17.763-20.286-34.973-41.6-53.323-60.78-18.988-19.85-38.7-38.479-58.75-56.185-29.423-25.982-59.482-50.555-89.177-75.94-27.881-23.835-56.172-46.514-86.514-63.858-29.4-16.8-59.872-25.87-91.64-22.945-20.43,1.88-40.764,5.955-61.113,9.37-69.339,11.632-133.4,46.353-194.717,90.755q-80.915,58.595-164.523,108.763c-44.31,26.472-85.685,60.5-125.407,98.495q-56.452,54-112.906,108c-17.858,17.069-36.549,31.757-56.616,43.506-17.128,10.027-33.541,22.551-49.977,34.739-31.675,23.49-64.647,41.6-100.2,49.778a286.193,286.193,0,0,1-91.959,5.962c-32.955-3.141-65.227-11.763-97.373-21.785q-47.762-14.889-95.6-29.3a175.9,175.9,0,0,0-23.169-5.093c-14.551-2.3-26.795,4.961-35.887,20.5a257.115,257.115,0,0,0-17.091,35.547c-12.053,30.646-18.218,64.337-24.428,97.912-6.006,32.469-11.761,65.039-21.329,95.955-7.321,23.654-16.262,45.944-28.553,65.369-7.195,11.371-15.038,21.826-24.728,28.846a42.643,42.643,0,0,1-15.18,7.185c-6.363,1.45-10.432-3.7-10.792-12.727a91.314,91.314,0,0,1,1.034-16.8c2.785-18.813,6.207-37.451,8.76-56.321,5.707-42.167,2.047-83.253-8.138-123.466-16.957-66.939-46.4-118.548-93.367-148.716a181.967,181.967,0,0,0-52.294-23.312c-23.583-6.177-47.449-10.4-70.9-17.395q-55.763-16.639-111.1-36.049c-26.4-9.294-52.322-21.215-78.594-31.264a251.07,251.07,0,0,0-89.627-16.791c-38.6-.1-77.206,1.291-115.81,1.334-25.091.027-50.183-1.2-75.276-1.858-1.614-.042-3.23.053-4.845.085Z" transform="translate(-2 90.017)" fill="#67666b"/>
      <path id="Caminho_12" data-name="Caminho 12" d="M2,822.881c22.657.94,45.31,2.2,67.972,2.738,27.257.647,54.525.44,81.783,1.049,23.389.523,46.106,7.034,68.317,16.951,14.9,6.653,29.722,13.687,44.5,20.885,41.153,20.054,77.238,51.606,108.8,93.528,12.516,16.623,25,33.392,38.338,48.676a361.886,361.886,0,0,0,35.635,35.166c14.012,12.17,27.926,24.421,40.31,39.679a239.137,239.137,0,0,0,77.876,63.314c24.812,12.693,49.424,26.165,73.985,39.785,21.359,11.845,41.635,26.762,61.208,43.615,7.1,6.114,14.4,12.076,22.069,16.542,15.212,8.857,26.561,1.669,31.979-20.1a134.988,134.988,0,0,0,3.686-26.477c.573-13.517.038-27.123.035-40.692,0-7.913-.274-15.877.257-23.728,1.127-16.684,7.556-25.174,19.607-25.487a54.269,54.269,0,0,1,16.855,2.393,721.565,721.565,0,0,0,149.875,27.82c55.683,4.455,111.191,2.255,165.694-17.073a210.687,210.687,0,0,0,47.9-24.046c21.753-14.7,40.209-35.09,55.167-61.614,6.18-10.958,12.151-22.156,18.518-32.9,19.58-33.036,44.231-56.089,72.871-70.981,26.909-13.992,54.074-11.773,81.225-1.545,10.677,4.022,21.243,8.636,31.823,13.148,24.953,10.639,49.706,9.72,73.679-4.5a550.3,550.3,0,0,0,50.334-33.614c78.141-58.834,156.38-117.4,233.095-179.886a782.026,782.026,0,0,1,143.684-93.259c16.175-8.107,31.553-19.49,47-30.2,18.143-12.578,36.316-24.85,55.69-33.458,35.055-15.573,70.006-15.759,105.093-.238,26.815,11.862,52.446,27.786,78.132,43.548,37.542,23.036,74.727,47.413,113.881,64.773,28.27,12.535,56.939,23.31,85.418,34.933,9.306,3.8,18.569,7.794,27.852,11.7V761.79c-32.253-20.455-66.687-32.118-100.01-48.255-43.181-20.91-84.21-48.737-125.747-74.973-29.267-18.485-58.9-35.616-90.105-46.988-38.571-14.055-76-9.584-112.3,12.816-12.076,7.45-23.834,16-35.461,24.758a321.763,321.763,0,0,1-51.785,31.841c-52.829,26.005-103.172,59.84-151.977,97.887Q1648.117,849.8,1529.879,936.548c-14.093,10.295-28.526,19.712-42.958,29.062-26.229,16.993-53.533,21.77-82.14,14.743a131.257,131.257,0,0,0-66.841.612c-24.033,6.559-45.839,19.864-64.992,41.136-9.71,10.784-19.24,21.975-28.273,33.841-41.2,54.123-90.883,82.521-145.948,95.037-46.893,10.658-94.039,11.325-141.276,6.827-46.86-4.463-93.385-13.036-139.71-23.787-5.577-1.294-11.2-2.745-16.827-2.972-14.552-.587-22.193,8.089-24.393,28.361-1.574,14.5-1.766,29.289-3.235,43.818-1.239,12.255-2.616,24.711-5.462,36.348a95.523,95.523,0,0,1-10.456,25.142c-7.1,12.1-16.65,14.654-27.082,8.91a60.3,60.3,0,0,1-10.07-7.148,105.618,105.618,0,0,1-11.281-10.984c-34.377-39.8-74.053-65.738-115.676-86.621-16.495-8.276-33.077-16.222-49.521-24.689-22.154-11.407-42.557-27.329-61.88-46.311-18.746-18.414-38.118-35.581-57.011-53.709-11.558-11.089-22.851-22.736-34.037-34.551-7.529-7.953-14.828-16.371-21.944-25.04-49.973-60.874-109.419-93.945-172.951-114.86-21.422-7.052-43.387-7.123-65.241-7.468-34.277-.541-68.56-.366-102.838-.832C19.219,861.3,10.612,859.894,2,859.083Z" transform="translate(-2 70.856)" fill="#4e4d50"/>
      <path id="Caminho_13" data-name="Caminho 13" d="M2432.14,312.069c-6.59-14.682-14.023-28.351-23.076-40.363-15.061-19.985-32.044-24.556-50.513-11.545-11.265,7.936-22,17.572-32.407,27.584-10.21,9.82-19.879,20.79-29.489,31.763-56.271,64.256-119.475,108.91-190.214,132.892-33.277,11.28-66.32,23.9-99.5,35.778-24.885,8.908-48.981,20.881-72.584,35.015q-26.026,15.587-52.442,29.9c-55.389,30.045-107.111,69.523-155.638,117.28-13.9,13.68-27.684,27.589-41.5,41.425a683.514,683.514,0,0,1-103.827,85.344c-14.86,9.942-30.071,18.576-46.487,22.521-13.923,3.346-27,.347-38.964-9.77-8.056-6.812-15.593-14.846-23.234-22.58-6.773-6.854-13.28-14.221-20.062-21.057-13.94-14.051-29.3-17.152-45.357-9.168a157.229,157.229,0,0,0-28.758,17.857c-14.954,12.008-29.386,25.321-43.813,38.563-17.14,15.733-33.967,32.127-51.06,47.96-44.783,41.479-93.035,73.015-143.629,97.972-21.1,10.41-41.97,21.777-62.807,33.2a180.5,180.5,0,0,0-49.694,39.8c-27.2,31.137-59.061,44.043-93.277,49.012-49.813,7.233-98.49-.658-146.617-19.084-16.348-6.26-33.1-10.772-49.841-14.647-26.27-6.081-52.2-1.585-77.718,8.042a96.788,96.788,0,0,0-19.025,9.307c-10.7,7-17.418,18.714-18.8,35.618-.061.748-.173,1.487-.267,2.231-2.072,16.231-6.713,20.248-17.317,13.128a76.088,76.088,0,0,1-17.344-16.337,193.46,193.46,0,0,0-58.089-50.526c-6.243-3.532-12.29-7.752-18.391-11.762-23.665-15.559-43.444-37.817-58.927-67.309-8.456-16.109-16.679-32.457-24.97-48.735-8.447-16.585-16.737-33.33-25.291-49.807q-54.1-104.209-142.068-142.75c-28.812-12.7-57.564-25.652-86.348-38.477a132.11,132.11,0,0,0-50.993-11.331c-9.985-.254-19.978-.224-29.964-.05-29.949.523-59.9,3.16-89.841-.345V637.887c4.544.7,9.091,2.041,13.629,1.979,24.017-.325,48.031-1.008,72.046-1.558,18.623-.428,37.294-1.462,55.678,3.863a178.939,178.939,0,0,1,23.4,8.828c28.5,12.809,56.874,26.135,85.389,38.866,35.772,15.971,69.35,37.714,98.724,71,20.261,22.96,37.866,49.451,52.955,79.048,12.36,24.243,23.766,49.432,35.922,73.883,9.843,19.8,19.879,39.438,30.386,58.551a130.889,130.889,0,0,0,28.141,35.448c26.089,22.957,54.1,38.9,84.817,45.038,11.769,2.35,23.145-.286,34.42-4.3,15.416-5.485,30.7-11.715,46.14-17.041,28.8-9.932,57.791-9.521,86.675-1.031,24.009,7.056,47.783,15.694,71.82,22.542,38.344,10.925,76.744,10.668,114.673-3.483,11.115-4.146,22.381-9.682,32.255-17.74,36.69-29.939,76.421-48.77,116.724-66.076,26.8-11.508,53.506-23.554,79.905-36.723,47.074-23.485,90.234-57.532,130.857-97.959,21.758-21.654,43.1-44.128,65.034-65.426a463.363,463.363,0,0,1,40.472-35.272c8.152-6.253,17.368-10.182,26.39-13.745,11.525-4.551,22.591-1.007,32.479,8.09,6.29,5.788,12.091,12.623,18.035,19.126,8.071,8.83,15.87,18.167,24.138,26.613,15.306,15.636,32.263,19.729,50.708,13.309,13.708-4.771,26.658-12.114,39.239-20.877,31.725-22.1,61.658-48.234,90.005-77.956,27.2-28.516,54.7-56.373,83.334-82.108,71.89-64.613,149.859-107.906,233.393-132.331,38.811-11.348,77.178-25.092,115.317-40.364,65.573-26.254,124.579-69.321,177.089-130.022,11.64-13.457,23.284-26.986,35.518-39.339a240.11,240.11,0,0,1,30.871-26.752c18.673-13.288,37.1-11.314,54.142,6.278,6.7,6.916,12.957,14.671,19.415,22.044Z" transform="translate(-2 27.325)" fill="#424142"/>
      <path id="Caminho_14" data-name="Caminho 14" d="M1234,2014.79c7.759-1.122,15.522-2.2,23.278-3.373,26.193-3.955,51.321-14.291,76.294-25.323,43.284-19.119,86.958-36.167,131.727-46.942,52.2-12.563,104.65-21.37,157.807-20.979,47.244.345,94.522.134,141.735-1.986,38.292-1.72,76.552-5.911,114.745-10.373,29.128-3.4,57.678.651,86.143,8.256q92.622,24.741,185.225,49.625c19.422,5.192,39.109,7.823,58.811,6.992,31.018-1.307,62.06-3.147,92.985-6.619a402.62,402.62,0,0,1,117.169,4.289c29.2,5.272,58.46,9.33,87.924,10.26,53.056,1.674,104.957-8.686,155.954-28.718.775-.305,1.577-.487,2.367-.725v42.989c-13.414,5.027-26.861,9.889-40.225,15.166-5.053,1.995-9.911,4.946-14.858,7.461H2167.174c-3.322-1.454-6.6-3.172-9.97-4.32-64.463-21.935-129.641-38.779-195.057-54.083-36.741-8.594-73.374-10.035-110.346-3.4-27,4.847-54.143,8.292-81.26,11.771-45.644,5.856-91.347,10.45-136.691,20.624-42.323,9.5-84.885,16.925-127.331,25.372-5.01,1-9.951,2.672-14.925,4.033Z" transform="translate(-236.023 247.834)" fill="#1c1479"/>
      <path id="Caminho_15" data-name="Caminho 15" d="M2,1149.326c4.565-.025,9.129-.03,13.693-.076,30.507-.3,61.014-.559,91.521-.941,33.477-.419,66.953-1.389,100.428-1.318,33.3.072,66.161,6.209,98.869,14.937,17.187,4.586,34.734,6.541,52.123,9.641,27.828,4.962,55.648,10.031,83.495,14.782q32.928,5.617,65.916,10.552c25.791,3.905,51.295,9.226,75.776,22.189,75.146,39.787,102.706,141.561,96.979,218.13-2.683,35.866-12.439,67.982-29.055,95.338-9.556,15.735-20.809,29.466-31.379,43.986-5.383,7.394-11.393,13.989-16.329,21.908-9.519,15.274-7.594,29,4.972,38.983a47.268,47.268,0,0,0,23.917,9.761c23.583,3.115,45.574-4.552,66.388-19.594,24.486-17.693,44.013-43.287,59.981-74.407,20.313-39.586,32.272-84.148,39.853-131.267,4.906-30.491,9.173-61.2,14.653-91.486,2.621-14.489,6.859-28.569,11.38-42.174,3.144-9.458,7.62-18.22,12.2-26.543,11.685-21.237,27.179-28.044,45.956-23.307,29.773,7.51,58.949,18.285,88.021,29.761,33.227,13.116,66.515,25.939,100.627,33.893,50.9,11.869,101.664,13.394,151.469-8.372,18.722-8.182,36.769-19.568,54.836-30.428,18.58-11.166,37.074-22.745,55.094-35.546a191.824,191.824,0,0,0,31.343-27.749c27.272-30.237,53.572-62.188,80.934-92.259,26.5-29.126,53.35-57.741,80.941-84.805,41.974-41.173,88.436-70.654,135.894-97.135,41.366-23.083,81.939-48.439,121.349-77.6,41.321-30.579,84.34-55.779,129.553-73.159,46.571-17.9,93.68-21.645,141.009-7.81,16.273,4.757,32.187,12.734,47.793,20.979q92.774,49.015,175.1,126.5c8.057,7.588,16.12,15.179,24.346,22.4,37.161,32.609,71.4,70.455,103.644,111.949,8.7,11.19,17.89,21.628,26.854,32.412v40.727c-18.613-23.488-37-47.331-55.885-70.389-39.726-48.515-82.889-90.637-127.323-130.121-29.827-26.505-62.133-45.783-97.292-53.591-16.212-3.6-32.733-4.521-49.12-6.57-12.359-1.544-24.773-2.441-37.077-4.574-10.56-1.831-18.973-9.376-23.177-23.468-11.661-39.084-34.818-52.381-62.665-54.926-26.738-2.444-52.7,4.471-78.259,14.568a462.23,462.23,0,0,0-102.851,57.185c-45.278,33.075-92.1,61-139.7,86.67-51.56,27.805-100.669,62.073-145.341,108.035-27.641,28.439-53.9,59.195-79.247,91.47-20.945,26.674-41.437,54.041-62.309,80.827a334.81,334.81,0,0,1-22.364,26.069,89.419,89.419,0,0,1-17.388,14.288c-22.229,13.642-44.593,26.868-67.021,39.866-26.522,15.372-53.814,26.819-82.5,31.378-26.731,4.248-53.345,3.215-79.916-1.958-41.868-8.152-82.015-25.911-122.263-43.065-29.662-12.642-59.236-25.739-89.8-33.686-3.711-.965-7.405-2.164-11.148-2.759-14.562-2.317-26.41,5.312-36.169,19.97-8.6,12.911-14.263,28.263-18.636,44.641-6.254,23.419-9.483,47.877-12.625,72.35-4.908,38.235-10.478,76.21-21.1,112.347-15.5,52.727-38.237,97.832-71.794,131.182-29.755,29.571-62.758,44.84-99.576,41.6-15.216-1.34-30.075-5.689-43.494-16.057a84.963,84.963,0,0,1-18.6-19.531c-10.252-15.245-9.113-32.173,2.658-44.989,5.9-6.427,12.743-11.252,19.343-16.335,11.1-8.549,22.67-15.992,33.464-25.22,19.741-16.878,35.318-39.534,45.455-68.94,14.076-40.837,14.59-83.024,5.3-125.6-14.91-68.339-48.276-110.645-96.669-131.078-18.442-7.787-37.43-11.075-56.545-13.235-39-4.408-77.989-8.936-117-13.006a323.136,323.136,0,0,0-35.611-1.532c-27.81.182-55.48-.464-83.188-5.7-40.2-7.6-80.764-7.367-121.29-6.36-49.4,1.228-98.8,2.065-148.2,3.094a23.246,23.246,0,0,0-3.2.506Z" transform="translate(-2 97.38)" fill="#4e4d50"/>
      <path id="Caminho_16" data-name="Caminho 16" d="M2432.14,911c-16.773-16.466-33.218-33.637-50.381-49.267-52.06-47.41-106.688-88.574-162.215-127.371-22.413-15.66-45.236-30.344-68.4-43.688-22.587-13.01-46.353-20.009-71.024-19.476-13.575.294-27.031,2.563-39.943,8.089-43.319,18.542-87.381,33.457-130.715,51.751-58.023,24.494-113.015,59.677-165.988,100.65q-63.419,49.052-129.268,91.178c-38.031,24.429-74.466,53.11-110.637,82.459-34.774,28.216-69.908,55.509-107.288,76.585a237.028,237.028,0,0,1-28.951,14.364c-24.543,9.684-47.849,23.331-70.174,40.414-12.541,9.6-25.026,19.342-37.639,28.754-42.394,31.632-87.629,50.31-135.294,58.277-41.269,6.9-82.45,5.859-123.505-2.258-33.9-6.7-67.67-14.746-101.534-21.852-15.728-3.3-31.531-5.928-47.324-8.6-14.306-2.419-25.448,5.379-33.048,22.136-4.75,10.473-8.842,21.568-12.832,32.663-8.352,23.228-16.243,46.782-24.726,69.915a290.664,290.664,0,0,1-13.66,31.995c-13.274,25.984-24.865,27.049-40.74,3.748-6.491-9.527-12.151-20.177-18.037-30.486-8.241-14.44-16.007-29.435-24.561-43.5-24.957-41.027-56.755-68.367-92.782-85.608-23.928-11.451-48.519-20.37-73.038-29.2-35.68-12.849-69.86-30.872-102.9-53.579-35.824-24.621-71.757-48.951-107.94-72.519-28.181-18.357-57.326-33.393-88.183-40.378a224.393,224.393,0,0,0-41.026-5.768c-26.976-1-53.982-.3-80.971-.765-29.951-.513-59.9-1.548-89.846-2.3A43.1,43.1,0,0,0,2,987.932V949.467c24.536,1.249,49.065,3.053,73.609,3.6,28.88.646,57.772.319,86.658.2,41.183-.164,80.4,12.958,117.808,35.947,23.431,14.4,46.276,30.791,68.922,47.507,31.015,22.894,61.631,46.846,92.346,70.527,32.607,25.14,67.586,41.463,103.368,54.916,25.288,9.507,50.251,20.305,74.055,35.872,29.741,19.451,55.8,45.643,77.287,80.535,7.919,12.856,16.114,25.4,24.449,37.731a82.762,82.762,0,0,0,11.08,13.142c10.906,10.529,20.355,9.733,29.952-3.239a101.073,101.073,0,0,0,12.642-21.909c7.69-18.99,14.76-38.5,21.632-58.1,3.669-10.466,6.328-21.615,9.6-32.362,1.687-5.54,3.542-11.01,5.622-16.278,7.392-18.728,18.923-26.09,33.883-23.182,39.276,7.638,78.519,15.623,117.814,23.053,39.37,7.444,78.9,12.242,118.673,9.384,60.08-4.317,117.342-23.726,170.519-64.035,12.334-9.351,24.567-18.971,36.736-28.735,29.227-23.449,60.026-40.976,93.162-50.541,27.664-7.986,53.626-23.02,78.757-40.653,19.766-13.868,39.066-29.025,58.675-43.338,33-24.086,65.648-49.2,99.223-71.609,44.36-29.608,87.206-63.075,130.479-95.494,54.326-40.7,110.517-75.427,169.4-101.314,5.658-2.488,11.35-4.888,17.108-6.867,24.959-8.576,48.955-20.953,72.77-34.348,14.476-8.142,29.317-15.495,44.42-20.875,26.037-9.277,51.976-4.947,77.538,5.21a295.217,295.217,0,0,1,61.69,33.9c58.949,41.82,117.942,83.553,176.354,126.805,22.1,16.36,42.652,36.777,63.909,55.345Z" transform="translate(-2 82.29)" fill="#4e4d50"/>
      <path id="Caminho_17" data-name="Caminho 17" d="M2,1878.831c2.126.332,4.26,1.03,6.378.945,33.174-1.34,66.379-1.9,99.509-4.412,45.045-3.411,90.076-5.261,135.13-1.961,56.857,4.167,113.671,9.517,170.533,13.5,30.986,2.171,62.031,2.976,93.057,3.673,38.6.866,77.2,2.034,115.516,9.081,61.825,11.372,123.125,26.626,183.313,49.949,19.566,7.583,38.48,16.548,56.349,30.557,26.272,20.594,55.371,29.185,85.005,34.3,10.683,1.844,21.416,3.114,32.126,4.646H816.907c-8.117-5.909-16.079-12.291-24.393-17.6-9.786-6.252-19.626-12.719-29.877-17.115-77.64-33.3-157.044-50.8-238.352-51.406-35.632-.263-71.279-1.011-106.885-2.823-79.33-4.04-158.627-7.233-238.044-4.162-59.09,2.285-118.236,1.835-177.357,2.6Z" transform="translate(-2 243.511)" fill="#1c1479"/>
      <path id="Caminho_18" data-name="Caminho 18" d="M740.763,2008.043H2V1956c25.1,0,50.2-.081,75.3.025q230.771.971,461.541,2.024c58.671.272,116.1,12.963,172.549,34.667C721.43,1996.577,730.985,2002.874,740.763,2008.043Z" transform="translate(-2 254.581)" fill="#1c1479"/>
      <path id="Caminho_19" data-name="Caminho 19" d="M1900.735,2c-1.131,8.113-2.451,16.185-3.358,24.347-2.969,26.717,1.037,52.557,5.947,78.033,5.463,28.338,12.121,56.227,17.538,84.581a263.379,263.379,0,0,1,4.327,38.915c.7,18.112-3.76,26.279-15.857,32.249-18.931,9.342-38.35,15.854-58.53,15.472-29.663-.562-59.322-1.749-88.974-3.049-14.277-.624-28.583-1.461-42.784-3.477a68.847,68.847,0,0,1-22.668-7.669c-12.113-6.519-18.2-20.007-17.5-38.074.419-10.8,2.164-21.58,3.881-32.188,2.256-13.939,5.414-27.6,7.575-41.56,4.381-28.3.48-54.627-10.9-78.755-3.262-6.916-7.172-13.265-10.193-20.366-3.824-8.992-7.729-18.129-10.317-27.869C1656.619,13.93,1651.658,8.812,1648,2h97.206c7.392,1.492,14.758,3.349,22.183,4.4,12.869,1.816,25.842,2.445,38.633,4.947,6.258,1.225,12.4,4.964,18.192,8.761,2.176,1.427,4.273,6.086,4.524,9.539a8.453,8.453,0,0,1-6.22,8.949c-3.385,1.076-6.942,2.035-10.369,1.748-9.416-.79-18.8-2.327-28.2-3.441-12.1-1.432-24.239-2.992-36.261.818-16.351,5.181-22.234,15.477-21.825,39.033.241,13.923,1.34,27.812,1.822,41.733.56,16.185.68,32.4,1.328,48.579.9,22.457,8.9,38.218,23.74,47.078a59.516,59.516,0,0,0,6.8,3.6,102.792,102.792,0,0,0,65.588,5.894c31.115-7.21,56.718-58.179,51.412-96.033-1.087-7.754-1.741-15.625-2.711-23.412-1.155-9.278-2.508-18.507-3.647-27.788-3.192-25.984-1.8-51.052,7.856-74.4Z" transform="translate(-314.663 -2)" fill="#1c1479"/>
      <path id="Caminho_20" data-name="Caminho 20" d="M1547.463,2A154.138,154.138,0,0,1,1568.5,29.8c3.952,6.721,10.17,10.957,15.577,15.864,8.137,7.387,16.809,13.707,24.63,21.676,25.564,26.055,31.742,56.234,19.588,96.9-4.241,14.191-9.974,27.524-15.14,41.164-4.285,11.318-9.017,22.321-13.051,33.806-6.155,17.524-6.348,35.525-1.1,53.661,4.983,17.21,11.223,33.464,19.324,48.177,9.276,16.846,17.7,20.289,31.909,13,6.826-3.5,13.434-7.855,20.066-12.053,36.218-22.923,74.12-30.9,113.673-26.329a323.492,323.492,0,0,1,60.668,13.414c19.79,6.272,39.494,7.911,59.133-.982,1.027-.465,2.072-.847,3.088-1.351,15.966-7.906,22.8-20.313,22.421-44.05a186.165,186.165,0,0,0-3.955-36.7c-5.646-25.505-12.624-50.431-18.8-75.713-6.7-27.411-13.64-54.742-19.5-82.511-5.1-24.157-6.106-48.911-.939-73.6.823-3.935,1.068-8.107,1.581-12.17h11.341c-1.554,9.149-3.177,18.277-4.649,27.452-3.215,20.054-1.023,39.761,2.392,59.26,5.6,31.988,15.273,61.885,24.446,92.062,7.794,25.643,15.33,51.469,22.269,77.582a202.262,202.262,0,0,1,6.32,54.383c-.285,24.1-7.639,41.734-22.93,53.151-20.728,15.476-42.3,19.8-64.936,10.06-7.467-3.213-14.8-7.085-22.094-11.014-24.175-13.021-49.019-20.3-75.1-19.468-22.032.7-42.674,8.035-62.182,22.073-17.438,12.55-32.794,29.045-46.622,48.37-6.87,9.6-13.514,19.517-20.414,29.076a88.282,88.282,0,0,1-9.8,11.781c-6.948,6.715-11.514,4.9-14.557-5.929a195.676,195.676,0,0,1-3.891-19.571c-3.713-21.6-6.417-43.638-11.252-64.728a410.753,410.753,0,0,0-17.219-57.172c-11.944-30.6-10.669-58.772,3.523-86.9,6.988-13.851,13.317-28.374,19.627-42.862a139.794,139.794,0,0,0,10.846-37.535c2.469-18.425-.935-34.325-10.141-47.83-6.819-10-15.042-17.389-24.175-22.218C1566.147,65.5,1553.5,60.1,1541,54.16c-6.379-3.029-12.811-5.885-19.069-9.35-4.65-2.576-8.508-6.889-9.672-14.186-1.141-7.151-4.5-11.726-8.353-16.091C1500.446,10.625,1497.289,6.2,1494,2Z" transform="translate(-285.411 -2)" fill="#1c1479"/>
      <path id="Caminho_21" data-name="Caminho 21" d="M2268.681,2c2.511,2.594,4.853,5.6,7.557,7.717,24.708,19.3,49.641,38.055,74.147,57.841,9.293,7.5,17.918,16.8,26.32,26.206a93.216,93.216,0,0,1,12.54,19.006,33.863,33.863,0,0,1-.262,32.559c-3.694,6.935-8.053,13.17-11.956,19.9-4.236,7.306-8.841,14.352-12.324,22.33-12.843,29.419-8.408,61.236,11.2,82.3,13.07,14.038,28.233,20.942,44.432,21.475,56.643,1.867,102.98-27.21,134.742-93.929,15.927-33.456,35.485-60.135,59.682-81.251q32.247-28.141,63.538-58.4c19.219-18.654,40.086-26.338,63.323-25.027a338.933,338.933,0,0,1,111.452,25.5c1.8.746,3.552,1.737,5.326,2.613V81.192c-24.164-12.39-49.153-20.091-74.6-24.8a262.927,262.927,0,0,0-34.643-4.007c-14.867-.748-29.054,4.063-41.8,14.891-29.334,24.926-57.512,52.236-82.244,85.664-9.25,12.5-17.489,26.772-24.994,41.429-33.777,65.952-80.383,103.585-136.073,120.9-25.809,8.023-51.9,9.35-77.7-1.119-15.548-6.308-29.445-16.825-40.839-33.145-20.589-29.489-27.328-64.167-19.291-103.943,2.267-11.219,5.133-22.256,8.274-33.065,7.4-25.472,3.674-47.54-10.549-65.753a307.807,307.807,0,0,0-28.875-32.673c-13.1-12.567-27.037-23.422-40.561-35.133-2.949-2.553-5.675-5.61-8.5-8.435Z" transform="translate(-428.255 -2)" fill="#1c1479"/>
      <path id="Caminho_22" data-name="Caminho 22" d="M104.066,2c-1.9,3.508-.58,5.685,1.737,6.853a140.95,140.95,0,0,0,14.566,6.711c28.2,10.368,56.362,21.169,82.021,41,19.561,15.12,38.55,31.738,57.461,48.428,23.479,20.722,46.4,42.692,69.972,63.2A261.817,261.817,0,0,0,382.915,204c27.582,14.068,54.923,14.034,82.094-1.619,18.7-10.769,37.3-21.847,55.888-32.971,46.239-27.67,94.449-46.955,142.839-65.417,59.055-22.532,118.879-40.568,178.637-58.974a143.313,143.313,0,0,0,17.149-6.516c2.616-1.19,4.914-3.744,8.019-6.205C859.828,17.578,848.081,12.655,839.588,2h61.564c2.084,2.3,4.08,4.774,6.271,6.851,6.253,5.927,12.69,11.485,18.828,17.629,2.17,2.171,3.688,5.614,6.526,10.088-5.572,3.265-9.556,6.405-13.836,7.96-13.83,5.022-27.741,9.634-41.671,14.1-70.453,22.555-140.975,44.7-210.542,72.29-48.054,19.056-95.647,39.855-140.748,70.458-18.2,12.348-36.458,24.555-54.945,36.021-30.932,19.187-62.061,17.806-92.524-1.755a284.528,284.528,0,0,1-39.583-30.62c-18.875-17.489-36.864-36.839-55.291-55.279-23.026-23.045-45.335-47.718-69.333-68.6C155.412,29.9,91.279,12.447,22.664,28.814,15.779,30.457,8.888,32.057,2,33.677V24.626c2.109-.2,4.286.014,6.314-.656Q23.907,18.823,39.43,13.255a122.719,122.719,0,0,0,12.22-5.315C53.5,7.035,54.95,5.3,53.843,2Z" transform="translate(-2 -2)" fill="#1c1479"/>
      <path id="Caminho_23" data-name="Caminho 23" d="M2,309.649c2.11-.423,4.313-.439,6.315-1.329,25.5-11.34,51.27-12.811,77.546-5.832,24.9,6.615,50,11.764,74.909,18.34,24.339,6.426,47.09,19.04,68.349,36.884,10.868,9.123,21.756,18.216,32.834,26.827a80.588,80.588,0,0,0,16.237,10.052c11.591,5.186,16.7-1.16,14.76-17.738a120.282,120.282,0,0,0-2.6-15.381C271.49,286.95,246.54,217.116,207.861,158.407,183.7,121.736,154.589,96.2,119.02,86.661c-21.942-5.885-44.044-6.138-66.063-2.032C35.883,87.813,18.979,92.784,2,96.962V81.124c9.866-1.89,19.719-3.929,29.6-5.642,26.606-4.614,53.251-6.007,79.858-.268,37.885,8.174,69.557,33.206,96.693,70.313,25.1,34.326,44.779,74.315,61.978,116.777,20.343,50.222,37.726,102.5,54.362,155.27A135.951,135.951,0,0,1,329.466,439c1.237,8.634-1.406,12.353-7.657,10.651a49.022,49.022,0,0,1-15.279-7.1c-10.83-7.619-21.41-15.954-31.969-24.3-6.1-4.823-12.08-9.985-17.909-15.424-30.744-28.683-64.589-46.216-100.68-56.6-23.218-6.677-46.311-14.451-69.18-23.165-25.853-9.849-51.116-9.614-76.259,3.6A78.943,78.943,0,0,1,2,330.013Z" transform="translate(-2 7.118)" fill="#1c1479"/>
      <path id="Caminho_24" data-name="Caminho 24" d="M623.492,2c2.332,1.786,4.727,3.431,6.979,5.4,2.19,1.913,4.232,4.154,6.2,6.11C635,21,630.829,22.718,627.135,24.36c-11.8,5.245-23.724,9.962-35.622,14.778-33.631,13.613-67.285,27.122-100.908,40.777-16.324,6.628-32.773,12.365-49.741,14.67-26.086,3.542-51.326-2.362-74.994-17.224-28.729-18.04-56.81-38.106-85.041-57.661-4.916-3.405-10.534-7.317-8.9-17.7h35.642c-2.066,4.866-.834,8.782,2.079,11.748,2.819,2.87,5.7,5.866,8.878,7.763C336.339,32.152,354,43.392,372.177,52.665c19.988,10.2,41,12.9,62.154,9.907,32.434-4.6,63.09-18.791,93.208-35.482a25.634,25.634,0,0,0,5.572-4.5c2.982-3.035,3.26-6.728.634-10.474C531.322,8.653,528.778,5.363,526.287,2Z" transform="translate(-53.22 -2)" fill="#1c1479"/>
      <path id="Caminho_25" data-name="Caminho 25" d="M2676.7,2c-15.2,12.836-30.359,25.766-45.608,38.487-27.349,22.816-57.165,34.625-88.722,38.953-36.682,5.031-71.916-4.989-106.717-19.491-34.134-14.224-67.121-32.791-99.8-52.445-2.122-1.277-3.909-3.644-5.851-5.5h42.122c2.454,1.945,4.758,4.533,7.386,5.736,30.8,14.08,62.113,25.238,94.442,29.549,31.96,4.259,63.585,1.605,94.26-12.9,11.462-5.42,22.654-11.854,32.345-22.384Z" transform="translate(-444.212 -2)" fill="#1c1479"/>
      <path id="Caminho_26" data-name="Caminho 26" d="M233.784,2c-.888,6,1,10.244,4.49,13.277,2.97,2.584,6,5.043,9.1,7.313,27.679,20.277,55.308,40.693,83.108,60.643,11.491,8.245,23.23,15.887,35.089,23.053,36.513,22.061,73.961,25.5,112.171,9.678,24.02-9.945,47.784-21.21,72-30.071C603.164,66.35,656.8,47.955,710.338,29.085c4.7-1.656,9.463-3.069,14.067-5.153,2.936-1.329,5.634-3.688,8.485-5.617C731.223,8.708,724.455,7.994,721.432,2h43.742c3.217,3.349,6.52,6.551,9.624,10.092,2.369,2.7,4.487,5.832,6.888,9-3.428,5.833-7.391,7.091-11.279,8.374-23.611,7.792-47.291,15.2-70.843,23.316-67.022,23.108-133.745,47.669-199.058,79.229-22.809,11.021-46.232,18.1-70.689,14.722-20.062-2.768-39.336-10.133-57.474-21.971-19.516-12.736-38.706-26.6-57.508-41.286-27.311-21.338-54.553-42.77-83.144-60.66A113.53,113.53,0,0,1,220.3,14.266c-3.285-2.69-5.057-6.684-4.338-12.266Z" transform="translate(-42.613 -2)" fill="#1c1479"/>
      <path id="Caminho_27" data-name="Caminho 27" d="M1842,2005.781c9.949-2.923,19.819-6.624,29.861-8.626,38.391-7.658,76.793-15.271,115.282-21.88,20.643-3.546,41.435-2.14,62.109,1.249,38.814,6.361,77.389,14.711,115.495,26.976a32.348,32.348,0,0,1,4.512,2.283Z" transform="translate(-351.514 256.843)" fill="#1c1479"/>
      <path id="Caminho_28" data-name="Caminho 28" d="M499.68,2c1.859,2.695,3.8,5.292,5.56,8.1,3.4,5.421,3.195,8.874-1.173,12.924a40.615,40.615,0,0,1-8.676,6C446.973,54.7,399.708,49.685,353.48,18.359a45.778,45.778,0,0,1-5.52-4.694C344.83,10.707,343.866,6.852,345.771,2h25.921c-1,5.993.638,10.081,4.616,12.5,1.476.9,2.9,1.966,4.409,2.745C402.782,28.65,425.5,32.361,448.79,27.706a57.223,57.223,0,0,0,16.275-5.942c6.638-3.653,6.94-7.76,2.04-14.789C466.015,5.41,465.057,3.663,464.038,2Z" transform="translate(-67.115 -2)" fill="#1c1479"/>
      <path id="Caminho_29" data-name="Caminho 29" d="M2989.844,17.838c-15.848-4.366-31.7-8.692-47.533-13.163-1.5-.425-2.876-1.763-4.31-2.676h51.843Z" transform="translate(-559.703 -2)" fill="#1c1479"/>
      <path id="Caminho_30" data-name="Caminho 30" d="M1091.09,785.469c-2.6,1.576-5.1,3.623-7.8,4.651-13.914,5.289-28.2,6.478-42.523,6.641-55.294.624-108.362-13.862-158.754-46.145-26.238-16.809-52.391-33.876-78.643-50.641-26.859-17.153-54.549-30.735-84.016-35.915a240.965,240.965,0,0,0-29.039-3.206c-17.664-.929-33.944-7.994-49.221-20.081-23.609-18.678-44.813-41.993-65.113-66.9a349.348,349.348,0,0,1-23.938-33.637,106.062,106.062,0,0,1-10.322-22.812c-5.162-15.448-3.777-30.576,4.661-43a151.309,151.309,0,0,1,19.569-23.485c18.285-17.739,39.023-27.235,60.838-32.014,18.141-3.973,36.351-6.443,54.8-3.245,16.139,2.8,29.411,12.443,39.243,30.341,6.06,11.031,11.552,22.752,16.694,34.673,11.286,26.161,22.188,52.693,36.345,76.121,61.089,101.1,136.635,169.8,229.767,198.475,25.279,7.785,50.77,14.22,76.134,21.471,3.818,1.092,7.476,3.267,11.209,4.942Q1091.033,783.587,1091.09,785.469Zm-249.6-97.925q.577-1.522,1.153-3.043c-1.6-3.3-2.926-6.963-4.852-9.84-5.892-8.8-11.83-17.573-18.08-25.87-34.394-45.654-64.831-95.724-88.954-153.049a315,315,0,0,0-15.708-31.483c-9.849-17.618-22.716-28.958-38.722-31.94-31.169-5.808-60.75,1.982-88.233,23.1-7.422,5.7-14.3,13.675-20.146,22.3-10.358,15.29-11.3,31.542-3.514,49.677a124.308,124.308,0,0,0,12.873,23.081c19.8,27.653,42.486,49.859,67.53,67.32a89.3,89.3,0,0,0,45.909,16.165,229.077,229.077,0,0,1,35.356,5.25c27.812,6.385,54.226,19.5,80.323,34.008,8.753,4.867,17.719,9.027,26.688,13.078C835.732,687.48,838.693,687.17,841.494,687.544Z" transform="translate(-103.947 52.129)" fill="#1c1479"/>
      <path id="Caminho_31" data-name="Caminho 31" d="M2167.2,154.146c-.62,7.469-1.539,19.822-2.728,32.124a58.6,58.6,0,0,1-2.268,10.821c-3.915,13.279-10.628,17.577-20.15,12.16a57,57,0,0,1-13.316-10.552c-21.113-22.575-37.805-50.435-49.635-83.748-4.339-12.218-7.344-25.1-7.179-39.047.224-18.905,7.326-33.006,20.087-39.7,11.493-6.03,22.837-4.525,33.94,1.784,16.434,9.338,27.258,26.358,33.829,49.083C2165.55,107.032,2166.554,128.051,2167.2,154.146Zm-37.533-41.75c-.949-14.247-4.292-26.6-13.98-33.386-8.88-6.223-16.844.921-16.054,14.639.882,15.325,6.814,26.731,16.407,33.905,6.093,4.558,11.031.893,12.848-8.558C2129.3,116.84,2129.415,114.571,2129.664,112.4Z" transform="translate(-395.188 1.99)" fill="#1c1479"/>
      <path id="Caminho_32" data-name="Caminho 32" d="M60.509,186.012c-11.589,0-23.178.124-34.764-.076a33.552,33.552,0,0,1-10.395-1.677c-7.149-2.474-8.681-7.891-4.428-16.55a60,60,0,0,1,8.761-13.151c17.823-20.141,38.438-31.531,60.909-36.678,25.539-5.85,49.994-1.851,72.659,16.648,15.178,12.388,27.636,28.868,36.433,50.229a77.528,77.528,0,0,1,4.992,18.832c1.017,7.588-1.356,10.869-6.781,9.931-4.493-.776-8.9-2.862-13.26-4.737-13.89-5.97-27.565-13.123-41.653-17.943-19.761-6.76-40.082-6.723-60.332-6.352-4.045.075-8.092.011-12.138.011Q60.51,185.256,60.509,186.012Z" transform="translate(-3.248 12.889)" fill="#1c1479"/>
      <path id="Caminho_33" data-name="Caminho 33" d="M2201.468,1238.709c-.468,56.264-14.5,103.989-47.247,138.421-26.423,27.781-56.266,37.961-88.646,25.466-27.815-10.733-46.961-34.825-52.932-75.7-3.044-20.838-.631-41.238,4.89-60.955a202.519,202.519,0,0,1,27.7-59.264c20.57-30.471,44.4-54.951,71.425-73.035a99.8,99.8,0,0,1,24.326-12.005c19.1-6.223,33.184,2.158,43.685,25.265,10.979,24.161,15.322,51.223,16.771,79.379C2201.652,1230.406,2201.468,1234.566,2201.468,1238.709Zm-111.287,133.382c34.323.12,62.737-29.539,70.688-70.8a128.629,128.629,0,0,0,2.088-32.332c-2.42-35.273-20.72-54.46-45.779-48.1-25.3,6.425-45.649,24.751-60.339,54.237a103.528,103.528,0,0,0-8.486,26.629c-4.664,25.164,3.115,48.616,19.385,61.307C2075.953,1369.448,2084.833,1372.1,2090.181,1372.091Z" transform="translate(-383.676 144.762)" fill="#1c1479"/>
      <path id="Caminho_34" data-name="Caminho 34" d="M1231.534,211c10.857,1.07,21.073,2.04,31.283,3.126a18.945,18.945,0,0,1,4.749,1.343c10.486,4.081,13.481,11.236,10.721,26.139-1.079,5.827-2.689,11.458-3.89,17.246-3.957,19.059-.929,30.405,11.9,39.106,8.432,5.72,17.5,9.807,26.488,13.689,13.134,5.671,26.532,10.146,39.661,15.834a113.857,113.857,0,0,1,20.211,11.425c23.25,16.386,35.044,43.55,37.027,79.365,1.88,33.945-3.849,65.859-13.919,96.435a312.622,312.622,0,0,1-72.582,120.9c-42.465,44.252-90.234,70.132-142.721,79.239-65.721,11.4-129.183-1.286-190.038-37.162-39.9-23.526-74.309-58.1-100.829-106.7a245.008,245.008,0,0,1-20.265-48.751c-10.631-36.33-10.9-72.629.526-108.693,3.711-11.706,7.8-23.2,12.045-34.547,6.782-18.119,9.362-36.641,4.79-56.7-3.988-17.5.339-31.59,11.266-40.748a165.61,165.61,0,0,1,28.165-19.542c26.6-14.121,54.434-21.59,82.523-27.176,36.613-7.28,73.449-11.356,110.346-14.454C1156.69,217.214,1194.391,214.1,1231.534,211ZM1142.22,710.025c10.221-1.456,28.29-2.951,46.1-6.769,50.64-10.857,96.306-38.331,136.351-83.2,28.88-32.354,52.2-70.893,65.852-119.65,6.555-23.4,10.415-47.56,9.094-72.881-1.847-35.408-13.915-61.2-37.351-75.832-5.4-3.371-10.958-6.691-16.692-8.476-18.148-5.651-36.429-10.459-54.628-15.794-17.142-5.024-34.354-9.7-51.33-15.664-13.49-4.744-24.513-15.306-32.23-32.033-5.065-10.982-12.446-18.075-21.535-20.464-10.308-2.709-20.759-5.332-31.2-5.877-42.494-2.221-84.661,2.876-126.489,13.331-15.686,3.92-31.184,9.025-45.918,17.836-10.849,6.488-20.939,14.847-27.3,29.062-10.876,24.314-25.171,44.1-40.242,63.119-10.424,13.155-20.251,27.2-27.942,43.808-12.357,26.687-16.208,55.38-10.608,86.444,5.058,28.06,15.372,52.149,28.519,74.013,20.279,33.722,45.222,59.306,73.279,78.823C1027.157,694.057,1079.72,708.4,1142.22,710.025Z" transform="translate(-165.231 25.445)" fill="#1c1479"/>
      <path id="Caminho_35" data-name="Caminho 35" d="M710.691,590.065c-38.626,5.823-67.626-14.109-93.67-44.528-5.878-6.866-10.9-15.764-14.978-24.888A39.908,39.908,0,0,1,604.722,482c3.691-5.845,8.057-11.365,12.857-15.248,18.531-14.991,38.533-21.192,59.88-16.45,15.359,3.412,27.707,14.5,37.294,31.28,13.389,23.438,23.4,49.651,31.362,77.425.3,1.048.59,2.109.816,3.191,3.516,16.845.437,23.6-12.156,26.646a26.811,26.811,0,0,1-5.6,1.163C721.9,590.146,714.615,590.065,710.691,590.065ZM672.046,540.3c6.948-.794,13.722-2.544,17.124-12.276,3.333-9.536,1-18.4-3.134-26.452-8.578-16.713-25.311-22.3-38.374-12.925-10.476,7.515-12.411,21.294-4.4,33.417C650.959,533.718,660.874,539.048,672.046,540.3Z" transform="translate(-115.267 56.663)" fill="#1c1479"/>
      <path id="Caminho_36" data-name="Caminho 36" d="M1174.609,333.3c36.1,2.651,72.223,4.846,108.294,8.138,19.352,1.767,38.745,4.541,57.364,12.914a97.04,97.04,0,0,1,19.346,11.28c17.53,13.427,26.425,34.755,27.432,62.466,1.032,28.394-5.235,54.285-14.752,78.8a269.84,269.84,0,0,1-54.627,86.887c-37.733,40.716-80.393,65.44-127.433,75.6-64.883,14.019-127.4,2.138-187.416-34.613-28-17.146-52.8-40.99-72.651-73.943-10.9-18.086-19.273-38.089-22.867-61.561-4.181-27.3.308-51.516,13.021-72.864a121.574,121.574,0,0,1,30.145-33.773c24.429-19.188,50.837-31,77.864-40.442,44.316-15.488,89.426-19.6,134.911-18.306,3.777.107,7.556.015,11.335.015C1174.587,333.708,1174.6,333.506,1174.609,333.3Zm24.474,13.824-60.743,2.388a412.4,412.4,0,0,0-108.251,18.6c-24.272,7.642-48,17.647-70.14,33.919A117.676,117.676,0,0,0,931.341,431.3c-15.92,23.606-19.9,51.035-13.036,81.638,4.947,22.068,14.36,40.391,25.723,56.839a204.6,204.6,0,0,0,60.33,58.016c58.136,36.389,118.882,47.374,181.837,34.764,42.36-8.485,81.3-29.524,116.439-63.769a262.93,262.93,0,0,0,59.159-85.624c8.715-20.254,14.976-41.814,16.452-65.558,1.909-30.736-5.309-55.817-24.9-71.854a91.683,91.683,0,0,0-20.782-12.29c-15.229-6.855-31.092-9.588-46.974-10.832C1254.885,350.226,1224.145,348.68,1199.083,347.129Z" transform="translate(-173.677 41.504)" fill="#1c1479"/>
      <path id="Caminho_37" data-name="Caminho 37" d="M1221.493,361.5c20.934,1.517,46,2.972,71.018,5.293a109.8,109.8,0,0,1,39.527,11.188c30.868,15.523,42.806,47.907,33.948,92.073-6.139,30.607-18.772,55.769-34.433,78.093-31.605,45.051-70.115,73.406-113.417,89.608a205.213,205.213,0,0,1-79.262,13.352c-46.4-1.552-90.99-14.491-132.512-44.6-19.327-14.012-36.809-31.461-50.723-55.22A132.377,132.377,0,0,1,940.713,515.3c-6.559-27.011-3.251-51.22,10.581-72.387,9.073-13.884,20.3-23.513,32.341-31.451,21.371-14.086,44.022-22.466,67.068-28.958a470.668,470.668,0,0,1,96.274-16.369C1170.418,364.55,1193.868,363.206,1221.493,361.5Zm-8.775,22.209c-11.429.676-29.762,1.654-48.087,2.87a501.768,501.768,0,0,0-100.342,16.509c-21.733,5.984-43.11,13.816-63.273,27.045a100.865,100.865,0,0,0-26.263,24.132c-15.66,20.988-18.784,47.283-8.841,74.207a120.753,120.753,0,0,0,17.815,31.97,167.046,167.046,0,0,0,54.423,45.877c39.593,21.35,80.575,29.769,122.986,25.577,38.247-3.781,74.361-17.385,107.938-43.4a214.481,214.481,0,0,0,59.459-70.368c7.935-14.992,14.077-31.215,16.794-49.684,3.971-27-2.9-50.1-20.311-63.032a93.338,93.338,0,0,0-27.244-13.668C1272.079,383.527,1245.808,384.117,1212.718,383.707Z" transform="translate(-179.695 45.206)" fill="#1c1479"/>
      <path id="Caminho_38" data-name="Caminho 38" d="M1211.635,390.917c22.869,1.9,45.777,3.163,68.586,5.99,9.563,1.186,18.974,5.381,28.338,8.819,3.857,1.415,7.561,4.064,11.075,6.8,17.078,13.3,23.448,34.746,18.438,61.253a132.521,132.521,0,0,1-12.805,36.295,190.007,190.007,0,0,1-48.8,60.23c-29.67,24.613-61.842,38.832-96.1,44.071-41.106,6.286-81.307.947-120.375-18.494a160.655,160.655,0,0,1-46.361-34.1,113.058,113.058,0,0,1-22.017-32.814c-11.028-25.458-8.668-50.106,6.782-70.545,8.753-11.579,19.22-19.323,30.227-25.785,23.04-13.526,47.282-20.85,71.792-26.443C1137.21,397.8,1174.342,394.329,1211.635,390.917Zm-62.889,215.411c10.745-1.165,21.533-1.828,32.228-3.592,31.457-5.189,61.036-18.56,88.32-41.237a171.858,171.858,0,0,0,39.962-47.186c6.462-11.268,11.712-23.493,14.293-37.653,3.958-21.716-.871-40.147-14.6-51.554a80.184,80.184,0,0,0-20.765-12.185c-15.874-6.554-32.354-8.522-48.8-8.843-18.865-.367-37.756.333-56.615,1.346a422.5,422.5,0,0,0-96.232,16.318c-18.5,5.411-36.677,12.448-53.76,24.115-9.278,6.336-17.96,13.885-24.69,25.074-9.5,15.791-10.84,33.109-4.506,51.6,3.792,11.069,9.178,20.722,16.2,27.819,9.138,9.229,18.476,18.5,28.547,25.422C1079.9,597.47,1113.739,605.557,1148.746,606.328Z" transform="translate(-188.683 49.07)" fill="#1c1479"/>
      <path id="Caminho_39" data-name="Caminho 39" d="M1209.383,437.461c13.886-.241,28.5.2,42.688,5.457a62.814,62.814,0,0,1,18.618,10.53c10.345,8.681,12.538,22.021,7.144,37.082-3.584,10.007-9.117,17.7-15.358,24.451-14.982,16.211-32.06,26.151-50.3,32.558-30.98,10.88-61.918,11.3-92.764-.938-10.185-4.041-19.885-9.7-28.365-18.783-16.82-18.007-16.51-39.317,1-55.861,14.359-13.564,30.813-19.753,47.5-24.647A238.711,238.711,0,0,1,1209.383,437.461ZM1193.213,461.2c-15.863,1.311-31.388,3.784-46.281,10.91a67.493,67.493,0,0,0-18.647,12.954c-8.323,8.332-8.2,19.962.385,27.623a52.474,52.474,0,0,0,19.218,11.02c20.454,6.247,40.761,3.921,60.441-5.984a79.193,79.193,0,0,0,17.206-12.2c5.678-5.152,11.337-11.729,9.88-22.665-1.384-10.379-8.022-13.915-14.379-15.765C1211.867,464.428,1202.5,463.1,1193.213,461.2Z" transform="translate(-206.516 55.175)" fill="#1c1479"/>
    </g>
  </g>
</svg>
